<?xml version="1.0" encoding="utf-8"?>
<!-- Generator: Adobe Illustrator 28.2.0, SVG Export Plug-In . SVG Version: 6.00 Build 0)  -->
<svg version="1.1" id="Calque_1" xmlns="http://www.w3.org/2000/svg" xmlns:xlink="http://www.w3.org/1999/xlink" x="0px" y="0px"
	 viewBox="0 0 48.4 48.4" style="enable-background:new 0 0 48.4 48.4;" xml:space="preserve">
<style type="text/css">
	.st0{fill:#FFFFFF;}
</style>
<g>
	<path class="st0" d="M33.5,33.9c-0.3,0.5-0.8,0.7-1.3,0.7c-0.2,0-0.5-0.1-0.7-0.2c-3.9-2.2-8.3-2.6-11.4-2.5
		c-3.4,0.1-5.9,0.8-5.9,0.8c-0.8,0.2-1.6-0.2-1.8-1c-0.2-0.8,0.2-1.6,1-1.8c0.1,0,2.8-0.8,6.5-0.9c2.2-0.1,4.3,0.1,6.3,0.4
		c2.5,0.5,4.8,1.3,6.8,2.5C33.7,32.3,33.9,33.2,33.5,33.9z"/>
	<path class="st0" d="M36.2,28.2c-0.3,0.6-0.9,0.9-1.5,0.9c-0.3,0-0.6-0.1-0.9-0.2c-4.6-2.7-9.8-3.1-13.4-3c-4,0.1-6.9,0.9-7,0.9
		c-0.9,0.2-1.9-0.3-2.1-1.2c-0.2-0.9,0.3-1.9,1.2-2.1c0.1,0,3.3-0.9,7.7-1c2.6-0.1,5.1,0.1,7.4,0.5c2.9,0.6,5.6,1.5,8,2.9
		C36.4,26.3,36.7,27.4,36.2,28.2z"/>
	<path class="st0" d="M37.9,23.1c-0.4,0-0.7-0.1-1.1-0.3c-10.8-6.3-24.9-2.6-25.1-2.5c-1.1,0.3-2.3-0.3-2.6-1.5
		c-0.3-1.1,0.4-2.3,1.5-2.6c0.2,0,4-1.1,9.4-1.3c3.2-0.1,6.2,0.1,9.1,0.7c3.6,0.7,6.9,1.9,9.8,3.6c1,0.6,1.4,1.9,0.8,2.9
		C39.4,22.7,38.6,23.1,37.9,23.1z"/>
</g>
</svg>
