<?xml version="1.0" encoding="utf-8"?>
<!-- Generator: Adobe Illustrator 28.2.0, SVG Export Plug-In . SVG Version: 6.00 Build 0)  -->
<svg version="1.1" id="Calque_1" xmlns="http://www.w3.org/2000/svg" xmlns:xlink="http://www.w3.org/1999/xlink" x="0px" y="0px"
	 viewBox="0 0 48.4 48.4" style="enable-background:new 0 0 48.4 48.4;" xml:space="preserve">
<style type="text/css">
	.st0{fill:#FFFFFF;}
</style>
<g>
	<g id="QiCO0E_00000174602424719447215360000000347259560292709536_">
		<g>
			<g>
				<path class="st0" d="M36.7,17.9c-2,1.7-4,3.4-6,5.1c-1.5,1.3-3.1,2.6-4.6,3.9s-2.2,1.2-3.8,0.1c-3.5-2.6-7-5.2-10.5-7.8
					c-0.5-0.4-0.5-0.7-0.3-1.2c0.9-1.6,2.3-2.6,4.1-2.6c5.6,0,11.2,0,16.9,0C34.4,15.4,35.7,16.3,36.7,17.9z"/>
				<path class="st0" d="M13,32.1c2.1-2,4.1-4,6.1-6.1c0.4,0.3,0.9,0.7,1.5,1.1c0.5,0.4,1.1,0.8,1.6,1.2c1.4,1,2.6,1,3.9,0
					c1-0.8,2-1.6,2.9-2.4c2.1,2,4.2,4.1,6.3,6.1c-0.8,0.7-1.7,1-2.7,1c-5.7,0-11.4,0-17.1,0C14.7,33,13.8,32.7,13,32.1z"/>
				<path class="st0" d="M37.2,19c0,0.5,0.1,0.9,0.1,1.2c0,2.7,0,5.4,0,8.1c0,1.2-0.3,2-0.9,2.8c-2.1-2-4.1-4-6.2-6
					C32.4,23,34.7,21.1,37.2,19z"/>
				<path class="st0" d="M18.1,25.2c-2,2-4,4-6.1,6c-0.3-0.7-0.7-1.5-0.8-2.2c-0.1-2.9,0-5.9,0-8.9C13.5,21.8,15.8,23.5,18.1,25.2z"
					/>
			</g>
		</g>
	</g>
</g>
</svg>
