<?xml version="1.0" encoding="utf-8"?>
<!-- Generator: Adobe Illustrator 26.2.1, SVG Export Plug-In . SVG Version: 6.00 Build 0)  -->
<svg version="1.1" id="Calque_1" xmlns="http://www.w3.org/2000/svg" xmlns:xlink="http://www.w3.org/1999/xlink" x="0px" y="0px"
	 viewBox="0 0 48.4 48.4" style="enable-background:new 0 0 48.4 48.4;" xml:space="preserve">
<style type="text/css">
	.st0{fill:#224D5F;}
	.st1{fill:#FFFFFF;}
</style>
<g>
	<ellipse class="st0" cx="24.2" cy="24.2" rx="24.1" ry="24.1"/>
	<path class="st1" d="M37.2,20.8c0-3.2-2.6-5.7-5.7-5.7H16.9c-3.2,0-5.7,2.6-5.7,5.7v6.8c0,3.2,2.6,5.7,5.7,5.7h14.6
		c3.2,0,5.7-2.6,5.7-5.7V20.8z M28.6,24.7l-6.5,3.2C21.8,28,21,27.8,21,27.6V21c0-0.3,0.9-0.5,1.1-0.3l6.3,3.4
		C28.6,24.2,28.9,24.6,28.6,24.7z"/>
</g>
</svg>
