<?xml version="1.0" encoding="utf-8"?>
<!-- Generator: Adobe Illustrator 26.2.1, SVG Export Plug-In . SVG Version: 6.00 Build 0)  -->
<svg version="1.1" id="Calque_1" xmlns="http://www.w3.org/2000/svg" xmlns:xlink="http://www.w3.org/1999/xlink" x="0px" y="0px"
	 viewBox="0 0 48.4 48.4" style="enable-background:new 0 0 48.4 48.4;" xml:space="preserve">
<style type="text/css">
	.st0{fill:#224D5F;}
	.st1{fill:#FFFFFF;}
</style>
<g>
	<circle class="st0" cx="24.2" cy="24.2" r="24.2"/>
	<g>
		<g>
			<path class="st1" d="M31.7,15c-0.9,0-1.7,0.7-1.7,1.7c0,0.9,0.7,1.7,1.7,1.7c0.9,0,1.7-0.7,1.7-1.7C33.4,15.8,32.6,15,31.7,15z"
				/>
			<path class="st1" d="M24.3,17.2c-3.8,0-7,3.1-7,7c0,3.8,3.1,7,7,7c3.8,0,7-3.1,7-7S28.2,17.2,24.3,17.2z M24.3,28.6
				c-2.5,0-4.5-2-4.5-4.5s2-4.5,4.5-4.5s4.5,2,4.5,4.5S26.8,28.6,24.3,28.6z"/>
			<path class="st1" d="M29.9,38.3H18.5c-4.7,0-8.5-3.8-8.5-8.5V18.5c0-4.7,3.8-8.5,8.5-8.5h11.3c4.7,0,8.5,3.8,8.5,8.5v11.3
				C38.4,34.5,34.6,38.3,29.9,38.3z M18.5,12.6c-3.2,0-5.8,2.6-5.8,5.8v11.3c0,3.2,2.6,5.9,5.8,5.9h11.3c3.2,0,5.9-2.6,5.9-5.8V18.5
				c0-3.2-2.6-5.8-5.9-5.8C29.9,12.6,18.5,12.6,18.5,12.6z"/>
		</g>
	</g>
</g>
</svg>
