<?xml version="1.0" encoding="utf-8"?>
<!-- Generator: Adobe Illustrator 26.2.1, SVG Export Plug-In . SVG Version: 6.00 Build 0)  -->
<svg version="1.1" id="Calque_1" xmlns="http://www.w3.org/2000/svg" xmlns:xlink="http://www.w3.org/1999/xlink" x="0px" y="0px"
	 viewBox="0 0 48.4 48.4" style="enable-background:new 0 0 48.4 48.4;" xml:space="preserve">
<style type="text/css">
	.st0{fill:#224D5F;}
	.st1{fill:#FFFFFF;}
</style>
<g>
	<g>
		<path class="st0" d="M48.4,24.2C48.4,10.8,37.6,0,24.2,0S0,10.8,0,24.2c0,12.1,8.9,22.1,20.4,23.9V31.2h-6.1v-7h6.1v-5.3
			c0-6.1,3.6-9.4,9.1-9.4c2.6,0,5.4,0.5,5.4,0.5v6h-3c-3,0-3.9,1.9-3.9,3.8v4.5h6.7l-1.1,7H28v16.9C39.5,46.3,48.4,36.3,48.4,24.2z"
			/>
		<path class="st1" d="M33.6,31.2l1.1-7H28v-4.5c0-1.9,0.9-3.8,3.9-3.8H35v-6c0,0-2.8-0.5-5.4-0.5c-5.5,0-9.1,3.3-9.1,9.4v5.3h-6.1
			v7h6.1v16.9c1.2,0.2,2.5,0.3,3.8,0.3c1.3,0,2.5-0.1,3.8-0.3V31.2H33.6z"/>
	</g>
</g>
</svg>
