<?xml version="1.0" encoding="utf-8"?>
<!-- Generator: Adobe Illustrator 28.2.0, SVG Export Plug-In . SVG Version: 6.00 Build 0)  -->
<svg version="1.1" id="Calque_1" xmlns="http://www.w3.org/2000/svg" xmlns:xlink="http://www.w3.org/1999/xlink" x="0px" y="0px"
	 viewBox="0 0 700 700" style="enable-background:new 0 0 700 700;" xml:space="preserve">
<style type="text/css">
	.st0{fill:#FFFFFF;}
</style>
<path class="st0" d="M582.2,206c-17.1,7.6-35.4,12.7-54.7,15c19.7-11.8,34.8-30.5,41.9-52.7c-18.4,10.9-38.8,18.9-60.5,23.1
	c-17.4-18.5-42.1-30.1-69.5-30.1c-52.6,0-95.3,42.7-95.3,95.3c0,7.3,0.8,14.6,2.5,21.7c-79.2-4-149.4-41.9-196.4-99.6
	c-8.2,14.1-12.9,30.5-12.9,47.9c0,33,16.8,62.2,42.4,79.3c-15.1-0.5-29.9-4.6-43.2-11.9v1.2c0,46.2,32.8,84.7,76.4,93.4
	c-8.2,2.2-16.6,3.3-25.1,3.3c-6,0-12-0.6-17.9-1.7c12.1,37.8,47.3,65.4,89,66.1c-32.6,25.6-73.7,40.8-118.3,40.8
	c-7.7,0-15.3-0.5-22.7-1.3c42.2,27.1,92.2,42.8,146,42.8c175.3,0,271.1-145.2,271.1-271.1c0-4.1-0.1-8.2-0.3-12.3
	C553.3,241.9,569.4,225.1,582.2,206L582.2,206z"/>
</svg>
