<?xml version="1.0" encoding="utf-8"?>
<!-- Generator: Adobe Illustrator 27.0.1, SVG Export Plug-In . SVG Version: 6.00 Build 0)  -->
<svg version="1.1" id="Calque_1" xmlns="http://www.w3.org/2000/svg" xmlns:xlink="http://www.w3.org/1999/xlink" x="0px" y="0px"
	 viewBox="0 0 180.5 132.6" style="enable-background:new 0 0 180.5 132.6;" xml:space="preserve">
<style type="text/css">
	.st0{fill:#B2CE7C;}
</style>
<path id="Tracé_1" class="st0" d="M158.7,75.5c8-5.7,14.4-12.6,21.7-14c-7-4.4-14.2-4-20.6-1.9c0.4-1.3,0.9-2.6,1.3-3.9
	c0.8-0.4,1.6-0.9,2.4-1.3c0.5,0.2,0.9,0.5,1.4,0.8c-0.1-0.5-0.3-0.9-0.4-1.3c4.3-2.4,8.3-4.5,11-4.9c-2.6-3-6.1-5-10-5.6
	c1-2.3,2.3-4.4,3.8-6.3c-3.6,0.4-7,1.8-9.9,4c-0.5-0.9-1-1.8-1.5-2.6c-0.2-2-0.5-4-1-6l-3.1-0.3V32l3.3,0c2.6-1.9,4.8-4,10.1-5.7
	c-5.9-1.4-12-1.2-17.7,0.7c0.8-2.8,1.2-5.3,3-7.8c-5,1.2-9.8,3.2-14.2,5.7c0.9-2,2-4,3.3-5.8c-3.2,1.5-6.3,3.4-9.2,5.4
	c0.8-5.9,2.6-12.4,4-19.2c-5.9,3.3-10.3,8.6-12.4,15c-2-4.9-5.3-9.1-9.5-12.3c1.1,3.8,1.4,9.2,2,14.9c-2.1-3.5-3.9-7.1-5.5-10.8
	c-1.4,1.8-2.7,3.8-3.8,5.9c-3.2-3.5-7.2-6.3-11.6-8.2c1.7,3.8,1.7,9.3,2.6,15c-1.1-1.4-2.1-2.9-2.9-4.5c-1.2,0.9-2.3,1.8-3.4,2.8
	c-1.4-5.5-4.6-11.7-11.6-17.4c0.6,6.3-1,12.2-1.2,19.8c-1-0.7-2-1.3-3.2-2c0.9-6.3,1.2-12.8,3.1-15.4c-3.4,0.9-6.5,2.4-9.3,4.4
	c-2.2-4.7-5.2-8.9-9-12.5c0.4,6.4-0.9,12.5-1.5,19.8c-2.8-5.5-5.8-10.7-6.4-13.9c-3.9,4.2-4,10.1-2.9,15.6c-4.3-5.5-9.6-10-10.6-15
	c-3.3,4.8-3.1,9.8-1.5,14.2c-1-0.3-2-0.6-2.9-0.9c-0.3-0.6-0.7-1.1-1-1.6c0.2-0.3,0.4-0.6,0.6-0.9c-0.3,0.1-0.7,0.2-1,0.3
	c-1.8-3-3.4-5.7-3.7-7.6c-2.2,1.7-3.7,4.2-4.2,6.9c-1.7-0.7-3.3-1.5-4.8-2.6c0.3,2.5,1.4,4.9,3,6.8c-0.7,0.3-1.4,0.7-2,1l5.1,8.3
	c0,0.3,0,0.5,0.1,0.8h0v4.9c-1.2,12.2-11.4,10-12.1,10.4c-1.6,0.9,8.5,9.7,7.1,10.7c-8,5.7-14.4,12.6-21.7,14c7,4.4,14.2,4,20.6,1.9
	c-0.4,1.3-0.9,2.6-1.3,3.9c-0.8,0.4-1.6,0.9-2.4,1.3c-0.5-0.2-0.9-0.5-1.4-0.8c0.1,0.5,0.3,0.9,0.4,1.3c-4.3,2.4-8.3,4.5-11,4.9
	c2.6,3,6.1,5,10,5.6c-1,2.3-2.3,4.4-3.8,6.3c3.6-0.4,7-1.8,9.9-4c0.5,0.9,1,1.8,1.5,2.6c0.2,2,0.5,4,1,6l3.1,0.3v0.2l-3.3,0
	c-2.6,1.9-4.8,4-10.1,5.7c5.9,1.4,12,1.2,17.7-0.7c-0.8,2.8-1.2,5.3-3,7.8c5-1.2,9.8-3.2,14.2-5.7c-0.9,2-2,4-3.3,5.8
	c3.2-1.5,6.3-3.4,9.2-5.4c-0.8,5.9-2.6,12.4-4,19.2c5.9-3.3,10.3-8.6,12.4-15c2,4.9,5.3,9.1,9.5,12.3c-1.1-3.8-1.4-9.2-2-14.9
	c2.1,3.5,3.9,7.1,5.5,10.8c1.4-1.8,2.7-3.8,3.8-5.9c3.2,3.5,7.2,6.3,11.6,8.2c-1.7-3.8-1.7-9.3-2.6-15c1.1,1.4,2.1,2.9,2.9,4.5
	c1.2-0.9,2.3-1.8,3.4-2.8c1.4,5.5,4.6,11.7,11.6,17.4c-0.6-6.3,1-12.2,1.2-19.8c1,0.7,2,1.3,3.2,2c-0.9,6.3-1.2,12.8-3.1,15.4
	c3.4-0.9,6.5-2.4,9.3-4.4c2.1,4.7,5.2,9,9,12.5c-0.4-6.4,0.9-12.5,1.5-19.8c2.8,5.5,5.8,10.7,6.4,13.9c3.9-4.2,4-10.1,2.9-15.6
	c4.3,5.5,9.6,10,10.6,15c3.3-4.8,3.1-9.8,1.5-14.2c1,0.3,2,0.6,2.9,0.9c0.3,0.6,0.7,1.1,1,1.6c-0.2,0.3-0.4,0.6-0.6,0.9
	c0.3-0.1,0.7-0.2,1-0.3c1.8,3,3.4,5.7,3.7,7.6c2.2-1.7,3.7-4.2,4.2-6.9c1.7,0.7,3.3,1.5,4.8,2.6c-0.3-2.5-1.4-4.9-3-6.8
	c0.7-0.3,1.4-0.7,2-1l-5.1-8.3c0-0.3,0-0.5-0.1-0.8h0v-4.9c1.2-12.2,11.4-10,12.1-10.4C167.4,85.2,157.3,76.5,158.7,75.5z"/>
</svg>
