<?xml version="1.0" encoding="utf-8"?>
<!-- Generator: Adobe Illustrator 27.0.1, SVG Export Plug-In . SVG Version: 6.00 Build 0)  -->
<svg version="1.1" id="Calque_1" xmlns="http://www.w3.org/2000/svg" xmlns:xlink="http://www.w3.org/1999/xlink" x="0px" y="0px"
	 viewBox="0 0 1921.4 70.3" style="enable-background:new 0 0 1921.4 70.3;" xml:space="preserve">
<style type="text/css">
	.st0{fill:#D32626;}
</style>
<g>
	<path class="st0" d="M1904.5,70.2c-0.6-3.8,18-10.4,16.9-13.7c-15.9,2.4-13.6-14.9-14-15.9c-0.8-2.1-8,11.2-8.9,9.3
		c-4.9-10.5-10.8-19.1-12.2-28.8c-3.6,9.2-3.2,18.7-1.3,27.3c-1.1-0.6-2.2-1.1-3.3-1.7c-0.4-1.1-0.8-2.1-1.1-3.1
		c0.2-0.6,0.4-1.2,0.6-1.8c-0.4,0.2-0.7,0.4-1.1,0.6c-2.1-5.8-3.9-11-4.3-14.5c-2.8,3.8-4.1,8.5-4.5,13.2c-2-1.4-3.9-3.1-5.4-5.1
		c0.4,5,1.7,9.3,3.6,13.1c-0.8,0.6-1.5,1.3-2.2,1.9c-1.8,0.2-3.4,0.7-5,1.3c1.2-6.8,0.1-15.5-4.4-25.6c-2,10.7-7.2,20-14.3,28.5
		c0-0.3,0-0.5,0-0.8c0.6-4.3,1.1-8.3,2.8-12.3c-1.1,0.5-2.2,1.1-3.2,1.6c-0.7-8.5-1.8-16.2,0.6-23.2c-5.2,5.3-9.1,10.7-12.1,15.9
		c-1.2-8.8-3.5-17.7-7.7-24.6c0.2,9.4-0.6,17.6-1.9,25c-0.8-3.3-2-6.9-3.7-10.7c-0.9,5.1-2.6,9.9-4.9,14.4
		c-2.2-7.3-5.4-14.5-9.9-19.9c1.4,7.2,1.8,17.6,2.6,28.5c-2.5-7.5-4.9-14.3-6.4-20.7c-1.7,3.8-3,7.6-4.1,11.2
		c-3.1-5.9-7.4-11.4-13.2-15.7c2,7.2,2.2,17.8,3.3,28.7c-1.4-3-2.6-5.8-3.4-8.6c-1,1.3-1.9,2.6-2.8,3.9c-0.7-3.5-1.8-7.4-3.7-11.5
		c-1,5.4-2.9,10.4-5.6,15.1c0.7-9.6,0.9-19.3,2.5-23.2c-11.2,5.2-16,19.5-18,30.2c-1-7.9-2.3-14.9-2.7-21.2c-3.2,4.4-5.7,8.9-7.6,13
		c0.9-11,0.8-21.6,2.7-28.9c-7,5-11.8,11.7-15,18.6c-3.7,2.6-7.1,5.9-10.2,9.4c1.9-12,2.7-22.1,5.4-32.1c-5.3,4.1-9.5,8.9-12.8,13.9
		c0.3-5.2,0.6-9.9,1.1-13.7c-5.4,8-8.3,19.9-9.9,30.2c-1.2-1.8-2.6-3.6-4.2-5.5c-0.8,2.7-2,5.5-3.4,8.5c0.9-11,0.8-21.5,2.7-28.7
		c-6,4.2-10.3,9.8-13.5,15.6c-1.2-3.7-2.8-7.5-4.6-11.3c-1.5,6.4-3.8,13.1-6.3,20.6c0.6-10.9,0.8-21.3,2-28.5
		c-4.7,5.5-7.9,12.8-10.1,20.3c0.3-9.8,1.5-20.4,4.2-32.5c-6.5,7.3-11.3,18.6-14.6,29.7c-3.5-6-8.2-12.3-14.7-18.5
		c3.3,8.2,1.3,17.5,1,27.9c-2.9-2-6.4-4-10.5-5.8c1.9,4.3,2.5,8.5,3.4,13.2c-7.8-8.7-13.6-18-16-28.8c-4.5,10.1-5.5,18.7-4,25.6
		c-1.7-0.6-3.5-1.1-5.4-1.3c-0.7-0.7-1.5-1.3-2.4-1.9c1.8-3.7,3.1-8,3.4-13c-1.6,2-3.4,3.6-5.6,5c-0.6-4.8-2.1-9.4-5.1-13.3
		c-0.3,3.6-2.1,8.8-4.2,14.5c-0.4-0.2-0.8-0.4-1.2-0.6c0.3,0.6,0.5,1.2,0.7,1.8c-0.4,1-0.7,2.1-1.1,3.1c-1.1,0.5-2.3,1.1-3.4,1.6
		c1.8-8.5,2-18-2.1-27.3c-1.1,9.6-7.2,18.2-12.2,28.7c1.2-10.5,0.8-21.8-3.9-29.8c-0.7,6.1-4,16.1-7.2,26.5
		c-1-13.9-2.6-25.6-2.3-37.9c-4.9,7.7-8.2,15.9-10.3,23.9c-3.1-3.5-6.7-6.5-11.1-8.5c2.2,5,2.8,17.5,4,29.6
		c-1.3,1.3-2.6,2.6-3.7,3.9c-0.5-14.6-2.4-25.9-1.9-38c-8.1,10.8-11.8,22.9-13.3,33.3c-1.2-1.7-2.5-3.5-4-5.3
		c-0.8,2.7-2,5.5-3.4,8.5c0.9-11,0.8-21.5,2.7-28.7c-6,4.2-10.3,9.8-13.5,15.6c-1.2-3.7-2.8-7.5-4.6-11.3c-2,8.5-5.5,17.8-8.7,28.6
		c-1.7,0.5-3.3,1.2-4.9,2c0.9-5.4,1.2-10.2,3.2-15c-7.1,3.3-12.1,7.1-15.7,10.9c1-3.8,1.9-7.3,3.5-11.1c-4.2,3.5-7.5,7-10.1,10.4
		c0.8-11.3,2.6-23.8,4-36.7c-7.3,6.7-11.3,17.9-13.5,28.6c-2.2-8.5-5.7-17.2-10.9-23.6c1.4,7.2,1.8,17.6,2.6,28.5
		c-2.5-7.5-4.9-14.3-6.4-20.7c-1.7,3.8-3,7.6-4.1,11.2c-3.1-5.9-7.4-11.4-13.2-15.7c2,7.2,2.2,17.8,3.3,28.7c-1.4-3-2.6-5.8-3.4-8.6
		c-1.4,1.8-2.6,3.6-3.7,5.3c-1.6-10.5-5.4-22.5-13.4-33.5c0.8,12.1-0.8,23.4-0.9,38c-1.1-1.3-2.3-2.6-3.6-3.9
		c0.9-12.1,1.1-24.6,3.1-29.6c-4.1,1.9-7.5,4.8-10.3,8.4c-2.2-8-5.5-16.2-10.3-24c0.6,12.3-0.7,23.9-1.2,37.8
		c-3.3-10.5-6.7-20.4-7.5-26.6c-4.2,8-4.3,19.3-2.9,29.8c-4.9-10.6-10.9-19.2-12.2-28.9c-3.6,9.2-3.2,18.7-1.3,27.3
		c-1.1-0.6-2.2-1.1-3.3-1.7c-0.4-1.1-0.8-2.1-1.1-3.1c0.2-0.6,0.4-1.2,0.6-1.8c-0.4,0.2-0.7,0.4-1.1,0.6c-2.1-5.8-3.9-11-4.3-14.5
		c-2.8,3.8-4.1,8.5-4.5,13.2c-2-1.4-3.9-3.1-5.4-5.1c0.4,5,1.7,9.3,3.6,13.1c-0.8,0.6-1.5,1.3-2.2,1.9c-1.8,0.2-3.4,0.7-5,1.3
		c1.2-6.8,0.1-15.5-4.4-25.6c-2,10.7-7.2,20-14.3,28.5c0-0.3,0-0.5,0-0.8c0.6-4.3,1.1-8.3,2.8-12.3c-1.1,0.5-2.2,1.1-3.2,1.6
		c-0.7-8.5-1.8-16.2,0.6-23.2c-5.2,5.3-9.1,10.7-12.1,15.9c-1.2-8.8-3.5-17.7-7.7-24.6c0.2,9.4-0.6,17.6-1.9,25
		c-0.8-3.3-2-6.9-3.7-10.7c-0.9,5.1-2.6,9.9-4.9,14.4c-2.2-7.3-5.4-14.5-9.9-19.9c1.4,7.2,1.8,17.6,2.6,28.5
		c-2.5-7.5-4.9-14.3-6.4-20.7c-1.7,3.8-3,7.6-4.1,11.2c-3.1-5.9-7.4-11.4-13.2-15.7c2,7.2,2.2,17.8,3.3,28.7c-1.4-3-2.6-5.8-3.4-8.6
		c-1,1.3-1.9,2.6-2.8,3.9c-0.7-3.5-1.8-7.4-3.7-11.5c-1,5.4-2.9,10.4-5.6,15.1c0.7-9.6,0.9-19.3,2.5-23.2c-11.2,5.2-16,19.5-18,30.2
		c-1-7.9-2.3-14.9-2.7-21.2c-3.2,4.4-5.7,8.9-7.6,13c0.9-11,0.8-21.6,2.7-28.9c-7,5-11.8,11.7-15,18.6c-3.7,2.6-7.1,5.9-10.2,9.4
		c1.9-12,2.7-22.1,5.4-32.1c-5.3,4.1-9.5,8.9-12.8,13.9c0.3-5.2,0.6-9.9,1.1-13.7c-5.4,8-8.3,19.9-9.9,30.2
		c-1.2-1.8-2.6-3.6-4.2-5.5c-0.8,2.7-2,5.5-3.4,8.5c0.9-11,0.8-21.5,2.7-28.7c-6,4.2-10.3,9.8-13.5,15.6c-1.2-3.7-2.8-7.5-4.6-11.3
		c-1.5,6.4-3.8,13.1-6.3,20.6c0.6-10.9,0.8-21.3,2-28.5c-4.7,5.5-7.9,12.8-10.1,20.3c0.3-9.8,1.5-20.4,4.2-32.5
		c-6.5,7.3-11.3,18.5-14.6,29.7c-3.5-6-8.2-12.3-14.7-18.5c3.3,8.2,1.3,17.5,1,27.9c-2.9-2-6.4-4-10.5-5.8c1.9,4.3,2.5,8.5,3.4,13.2
		c-7.8-8.7-13.6-18-16-28.8c-4.5,10.1-5.5,18.7-4,25.6c-1.7-0.6-3.5-1.1-5.4-1.3c-0.7-0.7-1.5-1.3-2.4-1.9c1.8-3.7,3.1-8,3.4-13
		c-1.6,2-3.4,3.6-5.6,5c-0.6-4.8-2.1-9.4-5.1-13.3c-0.3,3.6-2.1,8.8-4.2,14.5c-0.4-0.2-0.8-0.4-1.2-0.6c0.3,0.6,0.5,1.2,0.7,1.8
		c-0.4,1-0.7,2.1-1.1,3.1c-1.1,0.5-2.3,1.1-3.4,1.6c1.8-8.5,2-18-2.1-27.3c-1.1,9.6-7.2,18.2-12.2,28.7c1.2-10.5,0.8-21.8-3.9-29.8
		c-0.7,6.1-4,16.1-7.2,26.5c-1-13.9-2.6-25.6-2.3-37.9c-4.9,7.7-8.2,15.9-10.3,23.9c-3.1-3.5-6.7-6.5-11.1-8.5
		c2.2,5,2.8,17.5,4,29.6c-1.3,1.3-2.6,2.6-3.7,3.9c-0.5-14.6-2.4-25.9-1.9-38c-8.1,10.8-11.8,22.9-13.3,33.3c-1.2-1.7-2.5-3.5-4-5.3
		c-0.8,2.7-2,5.5-3.4,8.5c0.9-11,0.8-21.5,2.7-28.7c-6,4.2-10.3,9.8-13.5,15.6c-1.2-3.7-2.8-7.5-4.6-11.3
		c-1.3,5.5-3.2,11.3-5.3,17.7c-0.3-0.9-0.5-1.9-0.7-2.8c0.4-8.7,0.7-16.8,1.7-22.7c-5.4,6.3-8.8,15-10.9,23.4
		c-2.2-9.5-6.1-19.2-12.3-26.1c0-0.1,0-0.1,0-0.2c0,0,0,0.1,0,0.1c-0.8-0.9-1.7-1.8-2.7-2.6c0.4,2.6,0.7,5.1,1.1,7.6
		c-1.8,7.5-1.2,15.1,0.3,22.1c-1.1-0.6-2.2-1.1-3.3-1.7c-0.4-1.1-0.8-2.1-1.1-3.1c0.2-0.6,0.4-1.2,0.6-1.8c-0.4,0.2-0.7,0.4-1.1,0.6
		c-2.1-5.8-3.9-11-4.3-14.5c-2.8,3.8-4.1,8.5-4.5,13.2c-2-1.4-3.9-3.1-5.4-5.1c0.3,4,1.2,7.5,2.5,10.7c-1.1-0.6-2.3-1.1-3.5-1.7
		c0.9,2,1.5,4,2,6.1c-1.6,0.2-3.2,0.7-4.6,1.2c1.2-6.8,0.1-15.5-4.4-25.6c-2,10.7-7.2,20-14.3,28.5c0-0.3,0-0.5,0-0.8
		c0.6-4.3,1.1-8.3,2.8-12.3c-1.1,0.5-2.2,1.1-3.2,1.6c-0.7-8.5-1.8-16.2,0.6-23.2c-5.2,5.3-9.1,10.7-12.1,15.9
		c-1.2-8.8-3.5-17.7-7.7-24.6c0.2,9.4-0.6,17.6-1.9,25c-0.8-3.3-2-6.9-3.7-10.7c-0.9,5.1-2.6,9.9-4.9,14.4
		c-2.2-7.3-5.4-14.5-9.9-19.9c1.4,7.2,1.8,17.6,2.6,28.5c-2.5-7.5-4.9-14.3-6.4-20.7c-1.7,3.8-3,7.6-4.1,11.2
		c-3.1-5.9-7.4-11.4-13.2-15.7c2,7.2,2.2,17.8,3.3,28.7c-1.4-3-2.6-5.8-3.4-8.6c-1,1.3-1.9,2.6-2.8,3.9c-0.7-3.5-1.8-7.4-3.7-11.5
		c-1,5.4-2.9,10.4-5.6,15.1c0.7-9.6,0.9-19.3,2.5-23.2c-11.2,5.2-16,19.5-18,30.2c-1-7.9-2.3-14.9-2.7-21.2c-3.2,4.4-5.7,8.9-7.6,13
		c0.9-11,0.8-21.6,2.7-28.9c-7,5-11.8,11.7-15,18.6c-3.7,2.6-7.1,5.9-10.2,9.4c1.9-12,2.7-22.1,5.4-32.1c-5.3,4.1-9.5,8.9-12.8,13.9
		c0.3-5.2,0.6-9.9,1.1-13.7c-5.4,8-8.3,19.9-9.9,30.2c-1.2-1.8-2.6-3.6-4.2-5.5c-0.8,2.7-2,5.5-3.4,8.5c0.9-11,0.8-21.5,2.7-28.7
		c-6,4.2-10.3,9.8-13.5,15.6c-1.2-3.7-2.8-7.5-4.6-11.3c-1.5,6.4-3.8,13.1-6.3,20.6c0.6-10.9,0.8-21.3,2-28.5
		c-4.7,5.5-7.9,12.8-10.1,20.3c0.3-9.8,1.5-20.4,4.2-32.5c-6.5,7.3-11.3,18.6-14.6,29.7c-3.5-6-8.2-12.3-14.7-18.5
		c3.3,8.2,1.3,17.5,1,27.9c-2.9-2-6.4-4-10.5-5.8c1.9,4.3,2.5,8.5,3.4,13.2c-7.8-8.7-13.6-18-16-28.8c-4.5,10.1-5.5,18.7-4,25.6
		c-1.7-0.6-3.5-1.1-5.4-1.3c-0.7-0.7-1.5-1.3-2.4-1.9c1.8-3.7,3.1-8,3.4-13c-1.6,2-3.4,3.6-5.6,5c-0.6-4.8-2.1-9.4-5.1-13.3
		c-0.3,3.6-2.1,8.8-4.2,14.5c-0.4-0.2-0.8-0.4-1.2-0.6c0.3,0.6,0.5,1.2,0.7,1.8c-0.4,1-0.7,2.1-1.1,3.1c-1.1,0.5-2.3,1.1-3.4,1.6
		c1.8-8.5,2-18-2.1-27.3c-1.1,9.6-7.2,18.2-12.2,28.7c1.2-10.5,0.8-21.8-3.9-29.8c-0.7,6.1-4,16.1-7.2,26.5
		c-1-13.9-2.6-25.6-2.3-37.9c-4.9,7.7-8.2,15.9-10.3,23.9c-3.1-3.5-6.7-6.5-11.1-8.5c2.2,5,2.8,17.5,4,29.6
		c-1.3,1.3-2.6,2.6-3.7,3.9c-0.5-14.6-2.4-25.9-1.9-38c-8.1,10.8-11.8,22.9-13.3,33.3c-1.2-1.7-2.5-3.5-4-5.3
		c-0.8,2.7-2,5.5-3.4,8.5c0.9-11,0.8-21.5,2.7-28.7c-6,4.2-10.3,9.8-13.5,15.6c-1.2-3.7-2.8-7.5-4.6-11.3c-2,8.5-5.5,17.8-8.7,28.6
		c-1.7,0.5-3.3,1.2-4.9,2c0.9-5.4,1.2-10.2,3.2-15c-7.1,3.3-12.1,7.1-15.7,10.9c1-3.8,1.9-7.3,3.5-11.1c-4.2,3.5-7.5,7-10.1,10.4
		c0.8-11.3,2.6-23.8,4-36.7c-7.3,6.7-11.3,17.9-13.5,28.6c-2.2-8.5-5.7-17.2-10.9-23.6c1.4,7.2,1.8,17.6,2.6,28.5
		c-2.5-7.5-4.9-14.3-6.4-20.7c-1.7,3.8-3,7.6-4.1,11.2c-3.1-5.9-7.4-11.4-13.2-15.7c2,7.2,2.2,17.8,3.3,28.7c-1.4-3-2.6-5.8-3.4-8.6
		c-1.4,1.8-2.6,3.6-3.7,5.3c-1.6-10.5-5.4-22.5-13.4-33.5c0.8,12.1-0.8,23.4-0.9,38c-1.1-1.3-2.3-2.6-3.6-3.9
		c0.9-12.1,1.1-24.6,3.1-29.6c-4.1,1.9-7.5,4.8-10.3,8.4c-2.2-8-5.5-16.2-10.3-24c0.6,12.3-0.7,23.9-1.2,37.8
		c-3.3-10.5-6.7-20.4-7.5-26.6c-4.2,8-4.3,19.3-2.9,29.8c-4.9-10.6-10.9-19.2-12.2-28.9c-3.6,9.2-3.2,18.7-1.3,27.3
		c-1.1-0.6-2.2-1.1-3.3-1.7c-0.4-1.1-0.8-2.1-1.1-3.1c0.2-0.6,0.4-1.2,0.6-1.8c-0.4,0.2-0.7,0.4-1.1,0.6c-2.1-5.8-3.9-11-4.3-14.5
		c-2.8,3.8-4.1,8.5-4.5,13.2c-2-1.4-3.9-3.1-5.4-5.1c0.4,5,1.7,9.3,3.6,13.1c-0.8,0.6-1.5,1.3-2.2,1.9c-1.8,0.2-3.4,0.7-5,1.3
		c1.2-6.8,0.1-15.5-4.4-25.6c-2,10.7-7.2,20-14.3,28.5c0-0.3,0-0.5,0-0.8c0.6-4.3,1.1-8.3,2.8-12.3c-1.1,0.5-2.2,1.1-3.2,1.6
		c-0.7-8.5-1.8-16.2,0.6-23.2c-5.2,5.3-9.1,10.7-12.1,15.9c-1.2-8.8-3.5-17.7-7.7-24.6c0.2,9.4-0.6,17.6-1.9,25
		c-0.8-3.3-2-6.9-3.7-10.7c-0.9,5.1-2.6,9.9-4.9,14.4c-2.2-7.3-5.4-14.5-9.9-19.9c1.4,7.2,1.8,17.6,2.6,28.5
		c-2.5-7.5-4.9-14.3-6.4-20.7c-1.7,3.8-3,7.6-4.1,11.2c-3.1-5.9-7.4-11.4-13.2-15.7c2,7.2,2.2,17.8,3.3,28.7c-1.4-3-2.6-5.8-3.4-8.6
		c-1,1.3-1.9,2.6-2.8,3.9c-0.7-3.5-1.8-7.4-3.7-11.5c-1,5.4-2.9,10.4-5.6,15.1c0.7-9.6,0.9-19.3,2.5-23.2c-11.2,5.2-16,19.5-18,30.2
		c-1-7.9-2.3-14.9-2.7-21.2c-3.2,4.4-5.7,8.9-7.6,13c0.9-11,0.8-21.6,2.7-28.9c-7,5-11.8,11.7-15,18.6c-3.7,2.6-7.1,5.9-10.2,9.4
		c1.9-12,2.7-22.1,5.4-32.1c-5.3,4.1-9.5,8.9-12.8,13.9c0.3-5.2,0.6-9.9,1.1-13.7c-5.4,8-8.3,19.9-9.9,30.2
		c-1.2-1.8-2.6-3.6-4.2-5.5c-0.8,2.7-2,5.5-3.4,8.5c0.9-11,0.8-21.5,2.7-28.7c-6,4.2-10.3,9.8-13.5,15.6c-1.2-3.7-2.8-7.5-4.6-11.3
		c-1.5,6.4-3.8,13.1-6.3,20.6c0.6-10.9,0.8-21.3,2-28.5c-4.7,5.5-7.9,12.8-10.1,20.3c0.3-9.8,1.5-20.4,4.2-32.5
		c-6.5,7.3-11.3,18.5-14.6,29.7c-3.5-6-8.2-12.3-14.7-18.5c3.3,8.2,1.3,17.5,1,27.9c-2.9-2-6.4-4-10.5-5.8c1.9,4.3,2.5,8.5,3.4,13.2
		c-7.8-8.7-13.6-18-16-28.8c-4.5,10.1-5.5,18.7-4,25.6c-1.7-0.6-3.5-1.1-5.4-1.3c-0.7-0.7-1.5-1.3-2.4-1.9c1.8-3.7,3.1-8,3.4-13
		c-1.6,2-3.4,3.6-5.6,5c-0.6-4.8-2.1-9.4-5.1-13.3c-0.3,3.6-2.1,8.8-4.2,14.5c-0.4-0.2-0.8-0.4-1.2-0.6c0.3,0.6,0.5,1.2,0.7,1.8
		c-0.4,1-0.7,2.1-1.1,3.1c-1.1,0.5-2.3,1.1-3.4,1.6c1.8-8.5,2-18-2.1-27.3c-1.1,9.6-7.2,18.2-12.2,28.7c1.2-10.5,0.8-21.8-3.9-29.8
		c-0.7,6.1-4,16.1-7.2,26.5c-1-13.9-2.6-25.6-2.3-37.9c-4.9,7.7-8.2,15.9-10.3,23.9c-3.1-3.5-6.7-6.5-11.1-8.5
		c2.2,5,2.8,17.5,4,29.6c-1.3,1.3-2.6,2.6-3.7,3.9c-0.5-14.6-2.4-25.9-1.9-38C94,21.7,90.3,33.7,88.8,44.2c-1.2-1.7-2.5-3.5-4-5.3
		c-0.8,2.7-2,5.5-3.4,8.5c0.9-11,0.8-21.5,2.7-28.7c-6,4.2-10.3,9.8-13.5,15.6c-1.2-3.7-2.8-7.5-4.6-11.3
		c-1.5,6.4-3.8,13.1-6.3,20.6c0.6-10.9,0.8-21.3,2-28.5c-5.4,6.3-8.8,15-10.9,23.4c-2.5-10.8-7.2-22-15-28.7
		c1.8,12.9,4.1,25.4,5.2,36.7c-2.9-3.4-6.5-6.9-11-10.5c1.8,3.8,2.8,7.3,4,11.1c-3.8-3.8-9.2-7.7-16.9-11.1c2.2,4.8,2.7,9.6,3.7,15
		C15,48.2,7.7,46.7,0,49.9c6.3,3.3,9,7.3,12.1,11c0,0,0.1,0,0.2,0l0,0l0.1,9.4L1904.5,70.2z"/>
</g>
</svg>
