<svg xmlns="http://www.w3.org/2000/svg" viewBox="0 0 52.5 50.2"><path d="M10.5 1.4c4.8-.7 10.6.2 15.4-.5 5.8-.9 12-.9 17.8-.9 0 .5-.5 1.1 0 1.4 1.9.6 1.9 1.6 1.9 2.5 0 .5-1.4 0-1 .5-1.4 0-3.8.2-2.4.7.5.5 2.4 0 2.9.7s-.5 1.4 0 2H47c.5.5-.5 1.4 0 1.4 1.4.5 3.4.2 5.3.2 0 .5.5.9-.5 1.1-16.8.5-34.1 1.4-51 .7-1.9-.2-.5-1.1 1-1.8-.5.2-.5-.5-1-.2 0-.7 1-1.8 2.9-2H2.3c-.5-.2 0-.7 0-1.1.5 0 1 0 1-.2V5H1.4c.5 0 1 0 1-.2v-.9c1-.2 2.4.2 3.4 0V3c-1-.2-2.4 0-3.4 0 .5-.3.5-.5.5-1 1.4-.2 2.9.5 4.3-.2H5.8c.9-1.1 3.3-.2 4.7-.4zm31.4 28.8c-4.8.7-10.6-.3-15.4.5-5.8.9-12 .9-17.8.9 0-.5.5-1.2 0-1.4-1.9-.8-1.9-1.6-1.9-2.5 0-.5 1.4 0 1-.5 1.4 0 3.8-.2 2.4-.7-.5-.5-2.4 0-2.9-.7s.5-1.4 0-2H5.4c-.5-.5.5-1.3 0-1.4-1.5-.2-3.4-.2-5.3-.2 0-.5-.5-1 .5-1.1 16.7-2.2 34.2-2 51-.7 1.9.2.5 1.1-1 1.8.5-.2.5.5 1 .2 0 .7-1 1.8-2.9 2h1.4c.5.2 0 .7 0 1.1-.5 0-1 0-1 .2v.9H51c-.5 0-1 0-1 .2v.9c-1 .2-2.4-.2-3.4 0v.7c1 .2 2.4 0 3.4 0-.5.2-.5.5-.5.9-1.4.2-2.9-.5-4.3.2h1.4c-.8 1.3-3.2.4-4.7.7zm-31.4 10c4.8-.7 10.6.2 15.4-.5 5.8-.9 12-.9 17.8-.9 0 .5-.5 1.1 0 1.4 1.9.7 1.9 1.6 1.9 2.5 0 .5-1.4 0-1 .5-1.4 0-3.8.2-2.4.7.5.5 2.4 0 2.9.7s-.5 1.4 0 2H47c.5.5-.5 1.4 0 1.4 1.4.5 3.4.2 5.3.2 0 .5.5.9-.5 1.1-16.8.5-34.1 1.4-51 .7-1.9-.2-.5-1.1 1-1.8-.5.2-.5-.5-1-.2 0-.7 1-1.8 2.9-2H2.3c-.5-.2 0-.7 0-1.1.5 0 1 0 1-.2v-.9H1.4c.5 0 1 0 1-.2v-.9c1-.2 2.4.2 3.4 0V42c-1-.2-2.4 0-3.4 0 .5-.2.5-.5.5-.9 1.4-.2 2.9.5 4.3-.2H5.8c.9-1.4 3.3-.5 4.7-.7z" fill="#90d4f6"/></svg>