<?xml version="1.0" encoding="utf-8"?>
<!-- Generator: Adobe Illustrator 27.1.1, SVG Export Plug-In . SVG Version: 6.00 Build 0)  -->
<svg version="1.1" id="Calque_1" xmlns="http://www.w3.org/2000/svg" xmlns:xlink="http://www.w3.org/1999/xlink" x="0px" y="0px"
	 viewBox="0 0 589.3 441.6" style="enable-background:new 0 0 589.3 441.6;" xml:space="preserve">
<g>
	<g>
		<path d="M157.3,145.1c-0.1-1.5,0-2.3-0.2-3.1c-1-4,0.1-6.6,4-8.4c3.9-1.8,4.1-3.1,2.6-7.3c-0.3-0.9-0.9-1.8-1.1-2.8
			c-0.8-3,0.1-4.5,3.2-4.7c3.8-0.2,7.6-0.1,12.3-0.1c4-4.7,10-3.4,16.5-2.2c0.7-0.9,1.7-2,2.3-2.8c4.7-0.8,8.9-1.4,13.2-2.1
			c0.8-0.1,1.6-0.4,2.4-0.6c8.4-1.7,10.5-0.1,11.1,8.6c2.5,0.8,5.7,1,7.6,2.6c1.8,1.6,2.3,4.8,3.7,7.9c0.6-1.5,0.8-2.6,1.3-3.5
			c0.6-1.1,1.1-2.9,2.1-3.2c6.8-2.3,10.7-8.3,15.9-12.6c7.5-6.2,15.6-10.7,25.2-12.3c1.2-0.2,2.5-0.9,3.3-1.8
			c4.7-5.6,6.2-5.5,9.8,1.1c8.4-2.1,13.9-7.5,17.5-15.3c0.9-2,2.4-3.7,4.1-6.1c5.3,4.7,0.2,9.4,1.5,13.6c1.8-2.7,1.8-6.5,5.8-8
			c3.5,5.7-0.5,11-0.6,16.5c3,3.4,6.6,6.6,9,10.4c2.4,3.8,3.6,8.3,5.4,12.8c2.5-1,5.1-1.6,6.9,1.4c1.8,3,3.7,6.1,0.5,9.6
			c1.4,1.3,2.7,2.3,3.8,3.6c3,3.2,3.6,7,2.1,11.1c-0.3,0.8-0.8,1.5-1,2.3c-2.4,7.1-5.7,9.4-12.8,8.7c-5.8-0.6-6-0.2-5.7,5.7
			c0.1,1.9-0.9,4-1.8,5.9c-1.2,2.7-3.3,5-4.1,7.8c-3.9,12.8-15.1,19.3-28,15.5c-4.7-1.4-9.2-3.8-14.3-5.9c-2.1,2.8-4.3,5.7-6.7,8.9
			c4.5,5.8,10,11.1,16.8,14.7c7.7,4,10.2,9.6,8,18.1c-1.6,6,0.2,11.6,2.3,17c1.2,3.1,1.8,5.8,1.2,9.2c-0.5,3.1-0.1,6.3-0.3,9.5
			c-0.4,5.7-2.6,10.8-5.6,15.7c-8.5-0.9-7.6-9.1-11.3-13.2c2.1-6.4,2.1-6.4,7.1-9.3c-0.4-5.8,0.1-11.9-1.4-17.5
			c-2.1-8.2-6.2-15.7-14.3-19.9c-7.4-3.7-14.8-7.4-22.8-11.4c0.2,8.1,0.3,15.4,3.4,22.4c2.3,5.2,3.8,10.5,0.8,16.3
			c-1,1.8-0.1,4.9,0.6,7.3c1.6,5.4,3.5,10.7,5.3,16.1c2.1,6.5,7.4,10,12.7,13.6c2.6,1.8,5.5,3.3,6,6.8c-4.9,4.7-11.5,5.4-17,2.1
			c-3.2-1.8-1-4.4-1-6.9c-1.2-0.3-2.3-0.6-3.3-0.7c-4-0.3-5-1.4-6-5.2c-2.6-10-4.7-20.2-8.4-29.7c-2.4-6.1-4.6-12.3-6.7-18.5
			c-2.3-6.7-5.6-13-8.7-19.8c-5.5,0.6-8.9,5.7-14.9,5c-4.9-0.6-10.1,1.3-15.3,2.1c-1.9,6-4.6,12.4-5.6,18.9
			c-1,6.4,1.2,12.7,5.3,17.7c3.8,4.8,8.3,9.1,12.7,13.3c3.9,3.6,8.2,6.7,10.9,11.5c1.2,2.2,4,3.5,5.7,5.4c1.6,1.8,3.3,3.8,4.2,6
			c1.2,2.7-0.4,5-3.3,4.5c-4.2-0.7-8.3-1.9-12.3-3.5c-1.1-0.4-1.8-2.9-1.9-4.5c-0.1-2.4-0.5-4.6-2.8-5.4
			c-7.7-2.5-10.9-9.5-15.3-15.1c-4.7-6-9.1-12.1-16.7-15.3c-4.8-2-5.8-6.6-3.3-10.6c3.9-6.3,3.4-16.4-1-22.4
			c-0.8-1.1-1.6-2.1-2.6-3.4c-4.9,6-11.4,8.5-18.5,10.1c-2.7,0.6-7.2,0.7-7.2,4.2c0.1,3.7,2,7.5,3.8,10.9c0.8,1.5,3.1,2.6,4.9,3.1
			c8.1,2.2,11.8,8.1,14.2,15.4c0.8,2.5,2.4,4.8,3,7.3c0.8,3.3,1.2,6.8,1.3,10.2c0,0.9-1.4,2.2-2.5,2.7c-3.2,1.5-6.9,0.5-9.2-2.9
			c-1.7-2.4-2.7-5.3-3.8-8.1c-1.1-2.7-2.3-5.6,1.4-6.7c-6.4-12.5-17.4-18.6-29.7-22.9c-2.2-0.8-4.5-1.7-6.2-3.1
			c-1.5-1.3-3.1-3.4-3-5.2c0-2.4,1.7-4.4,4.7-5c4.2-0.9,8.3-2.2,11.5-6.5c-14.3-6.5-25-15.5-25-32.6c-0.4,0-0.7,0-1.1,0.1
			c-0.4,2.1-1.5,4.2-1.2,6.3c0.5,4.6,1.4,9.2,2.6,13.6c1.7,5.9,3.8,11.7,5.9,18c-3.7,5.3-2.4,11.4-0.9,17.4
			c3,11.8-0.8,21.3-9.6,29.1c-0.7,0.6-1.6,1-3.4,2.2c0.2-4.7,0.4-8.5,0.6-12.3c-4.9,9.9-9.5,19.9-17.7,27.6
			c-1.3-8.6,6.2-15.5,4.4-24.8c-5.2,4.4-9.6,9.2-16.9,9c0.5-3.3,3.5-3.5,5-5.2c1.4-1.6,4.6-2.4,1.9-6.5c-0.8,1.7-1.7,3.5-2.5,5.2
			c-2.8-3.8-1.7-6.7,0.6-8.1c7.5-4.6,6.2-11.8,6-18.7c-0.2-10.6-0.8-21.3-0.5-31.9c0.1-3.8,1.6-7.9,3.4-11.4
			c6.4-12.9,15.9-22.8,28.6-29.7c1.7-0.9,3.3-2.3,4.4-3.8c6.8-9.3,15.8-15,27-17.6C153.5,146.2,155.2,145.7,157.3,145.1z
			 M291.8,144.8c-0.4,7.7,3.2,15.3,0.2,23.1c-3.6-1.7-6.9-3.2-9.9-4.6c1.9,3.7,5,7.6,5.6,11.7c0.7,5,3.6,7.4,7.2,9.3
			c4.7,2.4,9.7,3.7,14.6,0.2c4.8-3.5,7.7-7.8,6.3-14c-0.2-0.8-0.3-1.9,0.1-2.4c3.6-5.1,2-11.3,3.9-16.8c1.1-3.2-0.7-5.4-4.1-6.2
			c-1.4-0.3-3-0.3-4.5-0.3c-4.1,0-7.5-1.3-10.1-4.5c-1.5-1.9-3.1-3.7-4.7-5.5c-0.6,7.5,6.4,13.5,3.8,21.6
			C295.2,153.8,294.7,148.5,291.8,144.8z M284.1,157.5c0.4-0.3,0.8-0.5,1.1-0.8c-0.7-1-1.3-2-2-3.1c-0.3,0.2-0.7,0.4-1,0.6
			C282.8,155.3,283.4,156.4,284.1,157.5z"/>
		<path d="M356.9,62.8c-0.3,2.1-0.6,4.2-0.8,6.3c-0.1,1.8-0.1,3.7-0.1,5.5c-0.1,2.2-0.4,4.4-3,5.2c-2.6,0.8-4.4-0.3-5.8-2.5
			c-3.6-5.6-7.5-11-11.1-16.5c-6.3-9.5-12.5-19.1-18.8-28.7c-2.4-3.7-4.8-7.4-7.7-11.8c-3.4,3.5-7.7,4.8-9.3,9
			c-0.2,0.6-0.7,1-1.2,1.4c-6.9,5.7-13.8,11.3-20.6,17.2c-9.8,8.6-19.3,17.3-29,26c-8,7.3-15.9,14.7-24,21.8
			c-1.7,1.5-4.2,2.7-6.5,3.1c-13,2.1-26,3.8-39,5.7c-3.8,0.5-5.4-0.4-7-4.1c-1.6-3.8-3.1-7.6-4.8-11.8c-17.3,6.8-32.9,15.9-49.1,24
			c-22.5,11.3-45,22.6-67.5,33.8c-0.4,0.2-0.9,0.5-1.4,0.6c-2.1,0.7-4.5,1.5-5.7-1c-1.2-2.4,1.1-3.5,2.8-4.6c10.7-7,21.4-14,32.2-21
			c6.6-4.3,13.4-8.4,19.9-12.9c5.1-3.6,10.8-6.3,15.9-10c7.4-5.2,15.2-9.6,22.8-14.5c7.5-4.9,15.1-9.8,22.7-14.6
			c2.1-1.4,4.6-2.4,6.4-4.1c4.3-3.9,9-2.6,13.6-1.2c7.2,2.2,14.3,4.5,21.4,7c4.9,1.7,8.6,0.6,12.7-2.7c6.9-5.6,14.5-10.5,21.9-15.7
			c10.5-7.4,20.9-14.8,31.4-22.3c12.9-9.1,25.9-18.2,38.6-27.5c3.6-2.6,6.6-2.6,10-0.4c4.2,2.7,8.5,5.4,12.7,8.1
			c5.9,3.7,11.9,7.2,17.6,11.1c5.7,3.9,11.1,8.2,16.8,12.1c10.7,7.3,21.6,14.4,32.4,21.6c14,9.3,28,18.6,41.9,28
			c4.1,2.8,7.9,4,12.9,2.2c5.8-2,11.9-2.8,17.9-4.4c2.7-0.7,4.9,0,7,1.6c4.7,3.7,9.4,7.4,14,11.3c14.1,11.7,28.1,23.5,42.1,35.2
			c7.7,6.4,15.4,12.7,23.1,19.1c0.4,0.3,0.9,0.6,1.1,1c0.5,1.5,0.8,3,1.2,4.5c-1.6,0.4-3.6,1.6-4.8,1c-3.6-1.6-7-3.8-10.4-5.9
			c-17-10.5-33.9-21.1-50.9-31.7c-2.1-1.3-4.2-2.7-6.2-4.2c-3-2.4-5.9-2.2-9.2-0.5c-9.3,4.8-18.8,9.2-28,14.2
			c-3.5,1.9-6.1,1.6-9-0.8c-10.8-8.6-21.6-17.1-32.5-25.6c-16-12.5-32.1-24.9-48.1-37.3C357.8,62.5,357.4,62.6,356.9,62.8z"/>
		<path d="M315.5,294.1c1.1-5.4,1.9-9.8,2.8-14.2c1-4.7,2.1-5.3,6.9-4.8c12.1,1.3,24.1,2.5,36.2,3.5c13.9,1.1,27.8,1.9,41.8,2.9
			c0.5,0,1,0.1,1.5,0.1c19,0.3,37.9,1,56.9,0.9c8.4,0,16.9-1.3,25.3-2.1c1.4-0.1,2.8-0.8,4.5-1.3c-0.4-3-2.6-4.5-4.7-5.5
			c-8.5-4.2-16.8-9-25.6-12.2c-16.3-5.8-33-10.5-49.4-15.8c-6.8-2.2-13.7-4.2-18.9-9.6c-6.7-6.9-4.9-16,4.3-18.9
			c7.1-2.3,14.6-3.4,21.9-4.3c14-1.8,28.1-3,42.1-4.6c6.6-0.7,13.2-1.5,19.8-2.6c3.8-0.6,7.6-1.8,11.4-2.7c0.1-0.5,0.3-1,0.4-1.5
			c-1.5-1.4-2.8-3-4.5-4c-4.8-3.1-9.7-5.8-14.4-8.9c-2.6-1.7-5.1-3.7-7.3-6c-3.5-3.6-3.3-6.3,1.2-8.7c3-1.6,6.5-2.5,9.9-2.8
			c4.7-0.5,9.4-0.1,14.2,0.5c-7.7,2.4-16.1,2.2-24.4,7.1c2.8,2.1,4.7,3.8,6.9,5.1c5.3,3.2,10.6,6.3,16.1,9.1c4.2,2.2,7,5.4,9.1,9.7
			c-1.1,3.3-3.4,5.2-6.7,6.1c-12,3.3-24.2,5.9-36.6,7.3c-11.9,1.4-23.7,3.5-35.6,5.2c-4.4,0.6-8.9,1-13.3,1.8
			c-3.4,0.6-6.9,1.1-9,5.3c1.4,1.1,2.7,2.5,4.2,3.1c4.6,1.9,9.3,3.8,14,5.1c17.4,5,35,9.5,52.3,14.8c9.7,3,19.1,6.8,27.4,13
			c2.6,2,5.2,4.2,7.3,6.8c6.2,7.8,3.9,17.3-5.4,20.7c-6.8,2.5-14.1,4.1-21.3,4.8c-31.7,3.1-63.5,2.3-95.3,2.1
			c-16.6-0.1-33.2-1.1-49.8-2C326.3,296.3,320.9,295,315.5,294.1z"/>
		<path d="M105.4,375.4c1.8,5.9,3.1,6.1,15.6,2.7c0.9,1.7,2.8,3.8,2.5,5.6c-0.2,1.5-2.6,3.1-4.4,3.9c-6.5,3-13.3,3-20,1.1
			c-4.1-1.1-6.6-4.3-8.3-8c-0.7-1.7-1.3-3.4-1.8-4.6c-11.2-3.9-18.5-10.7-21-22.3c-0.3,0-0.7,0.1-1,0.1c-0.8,1.7-1.6,3.5-2.3,5.3
			c-1.5,3.9-2.9,7.8-4.3,11.7c-1.8,4.9-1.8,4.9-7.2,4.9c-15.7,0-31.3,0-47,0c-5.9,0-6.6-0.9-6.3-6.7c0-1,0.3-1.9,0.5-2.9
			c0.6-0.3,1-0.6,1.5-0.7c5.4-0.8,6-1.3,6-6.5c0.1-10.2,0-20.3,0-30.5c0-2.9-0.2-5.9-0.3-8.9c-2.7-0.5-4.8-0.8-7.2-1.3
			c0-3.2,0-6,0-9.3c2-0.2,3.6-0.5,5.2-0.5c15.3,0,30.7,0,46,0c4.7,0,5.9,0.7,7.5,5c1.9,5.1,3.5,10.4,5.5,16.4
			c-2.2,1-4.3,2.2-6.4,3.1c-2,0.8-3.5,0-4.7-1.8c-7.1-10.4-15.3-13.6-27.8-10.6c0,4.7,0,9.5,0,15.3c3.1-0.7,6.3-0.6,7.9-2.1
			c1.6-1.6,1.6-4.8,2.4-7.8c2.8-0.1,5.7-0.2,8.9-0.4c0,10,0,19.4,0,29.3c-3.2,0-6.1,0-8.6,0c-1.3-3.1-2.1-6.2-3.9-8.4
			c-1-1.2-4-0.7-6.5-1.1c-1.2,5.5-0.7,10.5-0.4,15.4c0.1,0.8,1.3,2.2,2.2,2.3c8.4,0.6,16.9,1.2,23.4-5.4c2.9-2.9,4.8-6.7,7.7-10.7
			c2.4,0.6,5.3,1.3,8.9,2.2c0.7-8.8,2.7-16.6,10-22c6.2-4.5,13.1-6.2,20.7-6.1c12.6,0.2,22.8,7.2,26,18.8c2,7.4,1.7,14.8-1.9,21.9
			C118.9,369.2,112.7,373.1,105.4,375.4z M83.7,348.1c0.6,3.1,0.7,6.4,1.9,9.2c1.7,4,4.1,7.9,9.1,8.3c4.9,0.4,9.6-0.4,12.2-5.6
			c4.1-8.1,4-16-0.4-23.8c-3.7-6.5-12.2-7.2-17.3-1.7C85.5,338.3,83.6,342.7,83.7,348.1z"/>
		<path d="M344.4,365.9c2.2,0.6,3.8,1,5.8,1.5c0,1.4,0,2.7,0,4c0,1.1-0.1,2.3-0.2,3.8c-1.9,0.2-3.7,0.4-5.5,0.5
			c-4.8,0.1-9.7,0-14.5,0c-7.1,0-8.1-1.4-6.1-8.4c5.9-1.8,5.9-1.8,5.9-8.2c0-7,0-14,0-21c0-1.8-0.3-3.6-0.4-5.5
			c-3.8-1-7.2-1.9-6.4-6.8c0.4-2.5,1.2-4.2,3.9-4.2c12.5,0.3,25,0.4,37.4,1.2c6.8,0.4,10.5,5.2,12.1,11.6c1.3,5.1-1.1,10.4-6.2,14.2
			c-1.8,1.4-3.5,2.9-5.5,4.6c2.2,2.8,4.9,5.7,7.1,8.9c3.3,4.9,7.9,5.5,13.2,4.4c1-0.2,1.9-0.4,2.8-0.6c1.5-7.8,1.6-29.6,0.1-34.4
			c-1.4-0.4-3-0.9-4.8-1.5c-0.1-1.1-0.3-2.2-0.3-3.3c-0.1-1.1-0.1-2.3-0.2-3.4c3.9-2.2,21.7-2.3,26.6-0.1c0,2,0,4.1,0,6.5
			c-0.7,0.3-1.6,0.8-2.5,0.9c-2.8,0.3-3.5,2-3.5,4.5c0,9,0.2,18-0.1,27c-0.1,4,2.9,4.3,5.8,5.4c0.1,2.4,0.3,4.8,0.4,7.7
			c-2.3,0.2-4,0.4-5.8,0.5c-11.8,0.1-23.6,0.2-35.4,0.3c-2.7,0-4.8-0.8-6.4-3.1c-4.1-5.7-8.2-11.3-12.4-16.9c-0.9-1.2-2.2-2.2-4-3.9
			C343.4,357.3,344.2,361.5,344.4,365.9z M344.6,345c4.7-0.6,8.9-0.7,12.8-1.7c4.1-1.1,5.9-6.3,3.2-8c-4.7-2.9-9.8-4.7-15.9-2.3
			C344.6,336.5,344.6,340,344.6,345z M381.5,372.7c0.3,0,0.5,0.1,0.8,0.1c0.1-0.7,0.1-1.3,0.2-2c-0.3,0-0.5-0.1-0.8-0.1
			C381.6,371.4,381.5,372,381.5,372.7z"/>
		<path d="M305.5,308.7c2,7.7,3.8,14.8,5.8,22.4c-3.2,1.2-5.9,2.2-8.9,3.3c-2.3-2.7-4.7-5-6.5-7.7c-3.8-5.7-9.3-7.4-15.6-6.6
			c-5.9,0.7-9.5,4.8-11.4,10.1c-3.2,9-2.6,18.1,2.2,26.5c4.4,7.8,13.3,9.9,20.1,5.3c2.5-1.7,3.5-3.9,3.5-6.8c0-4.6-1.5-6.1-6.2-6.1
			c-0.7,0-1.3-0.1-2.3-0.2c0-3.1,0-6.2,0-9.7c1.8-0.2,3.6-0.4,5.3-0.4c7.2-0.1,14.3,0,21.5,0c6.8,0,7.8,1.2,6.9,8
			c-0.1,0.6-0.4,1.2-0.7,2c-0.9,0.1-1.7,0.3-2.5,0.3c-3.2-0.1-4.4,1.6-4.4,4.7c0,5-0.1,10-0.3,15c-0.1,2.4,1,5.6-2,6.6
			c-3.1,1-6.6,1.2-9.5-1.1c-0.8-0.6-1.5-1.3-1.5-1.3c-6.4,1.2-12,2.7-17.7,3.3c-11.6,1.2-24.9-7.3-29.3-17.7
			c-5.2-12.4-6-24.3,1.5-35.7c8.4-12.8,21.2-17.4,36.5-14c3.1,0.7,6.2,1.9,9.5,0.2C301,308.1,303.1,308.7,305.5,308.7z"/>
		<path d="M453.2,367.3c1.8-0.5,3.4-0.9,5.4-1.4c0-8.4,0-16.8,0-25.2c-0.1-0.1-0.2-0.1-0.3-0.2c-1.7,6.1-3.3,12.3-5,18.4
			c-1.3,4.6-2.5,9.3-4.2,13.8c-0.5,1.4-2.4,2.9-3.8,3.2c-2.2,0.4-4.7-0.2-5.8-2.8c-0.5-1.3-1-2.6-2.5-3.8c-0.6,1.8-1.2,3.6-2,6.1
			c-2.6,0.1-5.3,0.3-8.1,0.4c-2.3,0.1-4.7,0-7,0c-6.9,0-7.2-0.4-6.9-7.9c1.5-0.5,3.2-1.2,5.4-2c0.1-1.5,0.5-3.2,0.5-5
			c0.1-7.7,0-15.3,0-23c0-5.9,0-5.9-5.2-8c-1.9-6.7-0.9-8.1,5.9-8.2c4.3,0,8.7-0.1,13,0c4.8,0.1,5.7,0.7,7,5.4
			c2.1,7.3,4.1,14.7,6.4,23.3c0.9-2.2,1.5-3.2,1.8-4.4c1.8-6.6,3.6-13.1,5.2-19.7c0.8-3.3,2.6-4.8,6-4.7c4.8,0.1,9.7,0,14.5,0
			c6.5,0,7.5,1.4,5.5,8.3c-6,0.2-6,4.5-5.9,9.1c0.2,7,0,14,0.1,21c0,1.8,0.2,3.6,0.3,5.5c1.4,0.5,2.5,0.9,3.6,1.2
			c3.2,0.7,3,3.1,2.8,5.5c-0.1,2.6-1.8,3.4-4.1,3.4c-5.3,0-10.7,0.1-16,0C453.1,375.7,452.6,375.1,453.2,367.3z M437.8,367.2
			c-2.7-9.4-5.2-18.2-7.7-27c-0.9,6.6-0.9,13-0.9,19.5C429.3,366.3,429.6,366.5,437.8,367.2z"/>
		<path d="M534.9,329.9c0-2.4,0-4.7,0-7.5c1.7-0.2,3.2-0.6,4.8-0.6c11.8-0.1,23.7,0.1,35.5-0.1c4.2-0.1,6.5,1.5,7.7,5.5
			c1.2,4.1,2.8,8.1,4.3,12.4c-1.6,1.2-3.3,2.5-5.6,4.2c-1.4-1.3-3.4-2.3-4.2-3.8c-3.1-6.1-7.8-8.8-14.6-8.2
			c-2.3,0.2-4.6,0.3-7.3,0.4c0,3.8,0,7.2,0,10.5c5.4,1.4,5.9,1,8.6-6.2c1.9,0.2,4,0.4,6.6,0.6c0,7.5,0,14.6,0,21.8
			c-5,2.1-5.5,1.9-8-3.4c-1.2-2.5-2.5-2.9-7.2-1.9c0,3.6,0,7.3,0,11c10.1,4.5,18.4,0.6,26.5-12.5c2.3,1,4.7,1.9,6.8,2.8
			c0.2,1.1,0.5,1.6,0.3,2c-1.9,5.4-3.6,10.9-5.8,16.2c-0.5,1.2-2.6,2.4-3.9,2.5c-14.3,0.1-28.6,0-43-0.1c-0.4,0-0.9-0.4-1.5-0.8
			c0-2.2,0-4.5,0-7.2c1.6-0.6,3.4-1.3,6-2.2c0-2.2,0-4.7,0-7.1c0-6.8,0-13.7,0-20.5C540.9,331.8,540.9,331.8,534.9,329.9z"/>
		<path d="M154.3,330.1c-1.6,0.5-3,0.9-5.1,1.5c0,9.3-0.3,18.5,0.1,27.8c0.2,4.9,3.3,7.2,7.9,7.3c4.6,0.1,8-2.1,8.4-6.8
			c0.7-7.9,0.7-15.9,0.8-23.9c0-2.5-1-4.7-4.1-5.5c-3-0.8-2.5-3.6-2.2-5.9c0.3-2.3,2.1-2.8,4.1-2.8c4.7,0,9.3,0,14,0
			c2.9,0,4.8,0.9,5.1,4.1c0.3,3-0.7,4.8-3.9,5.1c-0.5,0-0.9,0.4-2.1,1c-0.1,6.1,0,12.6-0.4,19c-0.3,4.6-0.4,9.4-2,13.6
			c-2.3,5.9-6.9,10.2-13.6,11c-3.6,0.4-7.4,0.5-11,0.1c-8.6-0.9-15.2-8.2-15.4-16.8c-0.1-7.3-0.1-14.7-0.1-22c0-3-0.2-5.6-4.1-6.2
			c-2.9-0.4-2.7-2.9-2.6-5.1c0.1-2.2,1.5-3.4,3.5-3.5c6.7-0.1,13.3-0.3,20,0C155.2,322.1,155.7,324,154.3,330.1z"/>
		<path d="M505.4,354.8c0,4.3,0,7.5,0,10.9c2,0.8,3.8,1.5,5.4,2.1c0.6,7.3,0.1,7.9-6.6,7.9c-5,0-10,0-15,0c-2.7,0-5-0.2-5.3-3.8
			c-0.2-3.2,0.8-5.2,4.2-5.5c0.6-0.1,1.2-0.5,2.2-1c0.1-1.5,0.4-3.1,0.4-4.7c0-7.8,0-15.6,0-23.5c0-3.4-0.2-6.2-4.6-6.9
			c-2.5-0.4-2.3-2.9-2.3-4.9c0-2.1,1.1-3.6,3.3-3.6c11.3,0.1,22.7-1.3,33.8,1.4c6.9,1.7,10.8,6.5,11.6,13.4
			c0.7,6.6-2.1,11.9-7.9,14.9c-3.3,1.7-7.2,2.4-10.9,3C511.5,355.1,508.8,354.8,505.4,354.8z M505.1,332.5c0.2,4.3,0.4,8.5,0.7,12.9
			c4.2-0.1,8.3-0.2,10.1-4.1c0.9-1.9,0.7-5.2-0.4-6.9C513.4,331.1,509.7,331.4,505.1,332.5z"/>
		<path d="M410.8,400.6c0,2,0,3.5,0,5.6c-2,0.2-3.8,0.5-5.5,0.5c-72.6,0-145.3,0-217.9,0c-2.5,0-6.1,0.7-5.9-3.3
			c0.2-4.2,3.9-2.8,6.3-2.8c71.1-0.1,142.3-0.1,213.4-0.1C404.2,400.6,407.3,400.6,410.8,400.6z"/>
		<path d="M187.1,322.2c8.8-0.7,17.3-0.8,26.1,0.1c0,2.9,0,5.1,0,7.8c-5.6,0.4-6.3,4.1-6.1,8.7c0.3,5.8,0,11.7,0.1,17.5
			c0.1,3.3,0.5,6.5,0.7,9.8c1.9,0.5,3.3,0.8,5.1,1.2c0.1,1.3,0.2,2.6,0.3,3.8c0,1.1,0,2.3,0,4.2c-8.9,0.7-17.5,0.4-26.6,0.2
			c0.2-3.1,0.3-5.4,0.4-8c5.4-0.6,6.1-4,5.9-8.5c-0.3-7.3,0-14.7-0.1-22c0-1.8-0.3-3.5-0.5-5.3c-1.9-0.6-3.5-1.1-5.4-1.7
			C187.1,327.8,187.1,325.6,187.1,322.2z"/>
		<path d="M227.4,342.3c-2.6-2.9-4.3-5-5.9-6.7c-0.1-3.6,2.7-4,4.3-5.6c1.5-1.5,2.6-3.3,4.1-5.2c-1.9-0.9-3.2-1.6-4.5-2.3
			c-3.6-2-5.1-5.3-4.3-9.2c0.8-4,4.4-7.3,8.2-7.6c6.6-0.5,12,3.9,12.7,10.7c0.5,4.6-0.1,9.1-3,12.8
			C235.7,333.4,231.9,337.3,227.4,342.3z"/>
		<path d="M428.7,436.4c-0.8-5.3-1.4-9.1-2.1-12.9c0-0.2-1.4-0.1-2.6-0.2c0,2.9,0.1,5.5,0,8.1c-0.1,2.3-0.9,4.4-3.8,4.2
			c-2.7-0.2-2.9-2.2-3.1-4.3c-0.2-2.7,0.6-5.6-1.7-9.2c-1,2.2-1.9,3.4-2.1,4.8c-0.3,1.9,0.2,4.1-0.3,5.9c-0.3,1.1-1.7,2.6-2.7,2.7
			c-1,0-2.8-1.5-2.9-2.4c-0.3-3.8-0.3-7.6,0-11.4c0.1-1,1.9-2.5,2.9-2.6c5.7-0.3,11.5-0.3,17.2-0.3c2.7,0,5.3,1,5.9,3.7
			c0.7,3.7,0.9,7.5,0.6,11.2C433.8,434.8,430.7,435.4,428.7,436.4z"/>
		<path d="M507.5,437.6c0.3-0.6,0.4-1.1,0.6-1.5c0.2-0.4,0.6-0.8,0.3-0.4c-0.5-3.7-1.1-6.8-1.3-9.9c-0.2-3.5,1.8-6,5.1-6.4
			c4-0.5,8-0.1,12.1-0.1c0.3,4.6,0.7,8.6,0.7,12.5c0,3.3-0.2,6.8-4,8.4C516.5,442.1,511,441.2,507.5,437.6z M516.9,431.6
			c0.5-0.2,0.9-0.4,1.4-0.7c0-2,0.5-4.1,0-6c-0.5-2.1-3.3-2.7-4.2-1c-0.7,1.5-0.9,3.6-0.5,5.2C514,430.2,515.8,430.8,516.9,431.6z
			 M516.1,436.6c0.2,0.2,0.3,0.4,0.5,0.5c0,0,0.3-0.1,0.3-0.2c0-0.2-0.1-0.5-0.1-0.7C516.6,436.4,516.3,436.5,516.1,436.6z"/>
		<path d="M315,434.9c-3-3.9-2.4-8.1-1.5-12.1c0.6-2.9,3.2-4.1,6.2-4c3,0.1,5.9,0.4,9.5,0.6c0.3,1.2,0.9,2.6,1,4
			c0.2,3.2,0.1,6.3,0.1,9.5c-0.1,6.1-4,9.6-10,8.7c-1.6-0.2-3.3-0.7-4.8-1.3C312.6,439.1,312.5,437.8,315,434.9z M324.7,427.2
			c-0.9-1.3-1.7-3.5-2.9-3.8c-2.5-0.5-2.6,1.9-2.6,3.7c0,1.7-0.5,4,2.1,4.3C324,431.6,323.9,429.5,324.7,427.2z M320.3,436.1
			c0,0.4,0,0.7,0,1.1c0.6-0.1,1.1-0.1,1.7-0.2c0-0.2,0-0.5,0-0.7C321.4,436.3,320.8,436.2,320.3,436.1z"/>
		<path d="M293.1,432.7c0,3.8-2.8,3.7-5.3,3.7c-2.6-0.1-4.3-2-4.6-4.5c-0.3-2.5-0.1-5-0.1-7c-2.3-3.3-4.6-1.9-7-1.1
			c-2.5,0.9-3.1,2.7-3.1,5.1c0,1.5,0.2,3.1-0.3,4.4c-0.4,1-1.8,2.1-2.7,2.1c-1,0-2.7-1.2-2.8-2c-0.3-4-0.3-8-0.1-12
			c0.1-2,1.6-2.7,3.6-2.6c2.3,0.1,4.6,0.4,6.9,0.1c1.8-0.2,3.8-0.9,5.3-2c1.9-1.4,3.5-1.8,5.4-0.6c2.2,1.4,4.4,2.8,6.6,4.2
			c0,0,0,0,0,0c-1.8,1-3.7,2-5.4,2.9C288.5,430.8,288.6,431.2,293.1,432.7L293.1,432.7z"/>
		<path d="M47.1,430.4c-0.6,1.5-1.4,3.1-2.2,5.1c-1.3,0.2-2.9,0.5-5.3,0.9c0.8-8.1,4.4-14.6,5.9-21.4c6.8-1.2,7.5-0.8,9.5,4.9
			c1.7,5,3.4,10,5.1,15C53.6,438.5,52.4,429.8,47.1,430.4z M50,422.5c-0.3,0-0.6-0.1-0.9-0.1c-0.1,0.8-0.3,1.6-0.4,2.3
			c0.3,0,0.5,0.1,0.8,0.1C49.7,424.1,49.8,423.3,50,422.5z"/>
		<path d="M232.7,440.7c-1.4-0.1-3-0.3-4.7-0.4c0-6.1,0-11.7,0-17.3c0-1,0.3-1.9,0.6-3.6c4.1-0.2,8.1-0.5,12.1-0.4
			c2.5,0.1,4.2,1.8,4.3,4.6c0,0.7,0,1.3,0.1,2c0.2,8.7-0.7,9.7-9.7,10.5C234.7,437.3,233.8,438.8,232.7,440.7z M233,427.2
			c1.5,2,2.3,4.3,3.6,4.5c2.4,0.4,2.5-2.1,2.4-3.9c0-1.9,0.4-4.5-2.4-4.5C235.6,423.4,234.5,425.5,233,427.2z"/>
		<path d="M487.1,431.8c1.2-6.1,6.8-5.7,11.3-7c-0.1-0.4-0.3-0.9-0.4-1.3c-2.7,0.4-5.4,0.8-8.1,1.2c-0.9-3.3,0.9-5,2.6-5.2
			c3.2-0.4,6.5-0.1,9.7,0.6c1.1,0.2,2.2,2.4,2.4,3.9c0.3,3.6,0.1,7.3,0.1,11.5c-5.9,0.1-11.4,1.8-16.6-1.7
			C487.7,433.1,487.4,432.4,487.1,431.8z M497.2,431.7c0.1-0.3,0.2-0.6,0.3-0.9c-0.8-0.1-1.6-0.1-2.4-0.2c0,0.2-0.1,0.5-0.1,0.7
			C495.7,431.5,496.5,431.6,497.2,431.7z"/>
		<path d="M163.1,419.8c2.5-0.4,4.9-0.9,7.4-1c7-0.2,8.7,1.6,8.6,9.2c-1.3,0.4-2.6,0.8-4.2,1.2c1.3,0.5,2.5,0.9,3.8,1.4
			c0.1,2.9-1.6,4.4-3.7,4.8c-2.9,0.4-6,0.4-8.9,0c-2.6-0.3-3.8-2.5-3.9-5.1c-0.1-2.5-0.1-5-0.1-7.5
			C162.4,421.8,162.7,420.8,163.1,419.8z M172.6,424.8c-0.1-0.5-0.2-1.1-0.3-1.6c-1.1,0.3-2.3,0.5-3.4,0.8c0.1,0.5,0.2,1,0.3,1.5
			C170.3,425.3,171.4,425,172.6,424.8z M171.6,432.1c-0.9-1,0.1-4.9-2.9-2.4c-0.2,0.1-0.1,0.6-0.2,1.4
			C169.5,431.4,170.5,431.8,171.6,432.1z"/>
		<path d="M295.1,420.7c3.9-2.9,8.1-2.4,12.3-0.9c1.1,0.4,2.5,2.1,2.5,3.2c0.3,4.1,0.1,8.2,0.1,12.7c-6.3,0-12.2,1.9-17-3
			c0,0,0,0,0,0c0.9-2.4,1.7-4.8,2.4-6.6C295.3,424,295.2,422.4,295.1,420.7C295.1,420.7,295.1,420.7,295.1,420.7z M303.6,424.9
			c-0.2-0.6-0.4-1.3-0.6-1.9c-1.2,0.5-2.5,1-3.7,1.5c0.1,0.4,0.2,0.7,0.3,1.1C301,425.4,302.3,425.1,303.6,424.9z M300.2,430.3
			c0.1,0.5,0.2,1,0.4,1.4c0.9-0.3,1.7-0.6,2.6-0.8c-0.1-0.4-0.2-0.7-0.3-1.1C302,430,301.1,430.1,300.2,430.3z"/>
		<path d="M376.3,433.5c-4,3.7-8.4,2.5-12.6,2c-0.9-0.1-1.9-0.8-2.6-1.4c-2.8-2.7-2.7-11,0.1-13.5c2.7-2.5,10.8-2.6,13,0.3
			c1.3,1.7,1.6,4.2,2,6.5C376.5,429.5,376.3,431.6,376.3,433.5z M371.4,428.5c-2.6,0.7-4.2,1.1-6.6,1.7
			C368.3,433.4,369.5,431.6,371.4,428.5z M366,423.6c0.1,0.5,0.1,1.1,0.2,1.6c1.1-0.1,2.2-0.3,3.3-0.4c-0.1-0.5-0.1-1.1-0.2-1.6
			C368.2,423.3,367.1,423.4,366,423.6z"/>
		<path d="M444.8,435.9c-5.9,0.2-8.9-2.4-9-7.8c-0.1-5.9,2.7-9,8.5-9.3c5.7-0.3,10,2.9,10.3,7.7
			C454.9,432.6,451.9,435.6,444.8,435.9z M445.1,432.3c2.7-1.8,2.9-4.4,2.6-7c-0.1-0.9-1.3-2.1-2.1-2.2c-0.8-0.1-2.2,0.9-2.4,1.7
			C442.3,427.6,442.1,430.3,445.1,432.3z"/>
		<path d="M554.2,429.4c1.1,3,2.6,3.5,4.4,1.9c2.2-2,4.4-2,6.7-0.4c-2.7,4.3-8.2,6.6-12.7,5.2c-2.4-0.8-4.4-2.4-4.6-5.3
			c-0.1-0.8-0.1-1.7-0.1-2.5c0-3.2-0.3-6.6,3.2-8.3c3.7-1.8,7.4-1.6,11.1,0.2c2.5,1.2,3,3.4,2.6,5.9c-0.5,2.6-2.5,2.7-4.6,2.8
			C558.4,428.9,556.5,429.2,554.2,429.4z M555.1,423.2c-0.1,0.6-0.2,1.2-0.3,1.9c1.1,0.1,2.2,0.1,3.4,0.2c0.1-0.5,0.1-1,0.2-1.5
			C557.3,423.6,556.2,423.4,555.1,423.2z"/>
		<path d="M205.1,421.7c-0.1,3.5-0.2,7-0.3,10.5c0,0.6-0.4,1.3-0.8,1.7c-1.5,1.8-9.3,2.8-11.9,1.6c-2.9-1.3-4.7-5.6-4.2-9.9
			c0.4-3.1,2.9-5.6,6.6-6.5C198.4,418.1,201.9,419.2,205.1,421.7L205.1,421.7z M201.1,429c-1.7,0-2.7-0.1-3.7,0
			c-0.9,0.1-1.8,0.3-2.8,0.4C197,432.9,197,432.9,201.1,429z M198.1,425.3c0-0.6,0.1-1.2,0.1-1.8c-1.1,0.1-2.3,0.1-3.4,0.2
			c0,0.5,0,0.9,0,1.4C196,425.1,197,425.2,198.1,425.3z"/>
		<path d="M333,427.2c0.1-6.2,2.5-8.6,8.9-8.4c5.3,0.1,8.1,2.5,8.1,6.8c-0.1,8.4-1.9,10.4-9.1,10.3C334.5,435.8,332.9,434,333,427.2
			z M339.1,429.2c2.1,3.3,2.1,3.3,7.5-0.4C344,428.9,341.9,429,339.1,429.2z M343.4,424.7c0-0.4,0-0.8,0-1.2
			c-1.2,0.1-2.3,0.2-3.5,0.3c-0.1,0,0,0.6-0.1,0.8C341,424.7,342.2,424.7,343.4,424.7z"/>
		<path d="M94.1,427.9c-0.1,7.1-1.2,8-8.8,7.9c-6.2-0.1-8.2-2.1-8-8.1c0.1-6.4,3.1-9.2,9.3-9C92.4,418.9,94.3,421.2,94.1,427.9z
			 M83.9,429.2c2.4,3.2,2.4,3.2,7.5-0.5C88.9,428.9,86.8,429,83.9,429.2z M88,424.9c0-0.4,0-0.8,0-1.2c-1.1,0-2.2,0-3.4,0
			c0,0.4,0,0.8,0,1.2C85.8,424.9,86.9,424.9,88,424.9z"/>
		<path d="M247.1,427.1c0.1-6.1,2.8-8.5,9.7-8.4c5.6,0.1,8.3,3,8.3,8.8c-0.1,5.5-2.8,8.7-7.4,8.6C249.3,435.9,247,433.9,247.1,427.1
			z M256.1,432.1c2.5-2.3,3.4-5.3,2.1-7.7c-1-1.8-3.3-1.9-4.4-0.2C252.3,426.5,253.4,430.1,256.1,432.1z"/>
		<path d="M108.1,423.6c-3.7-1-4.7,0.3-4.9,2.4c-0.2,1.8-0.1,3.6-0.2,5.5c-0.2,3.9-0.6,4.1-5.9,3.5c-0.2-4-0.6-8.2-0.4-12.4
			c0.1-1.3,1.7-3.3,2.8-3.5c3.2-0.5,6.7-0.7,9.8,0c2.1,0.4,3.9,2.5,5.3,3.6c-0.2,3.9-0.4,6.8-0.6,9.8c-0.1,1.9-0.9,3.2-3,3.1
			c-2.1,0-2.9-1.3-2.9-3.2C108,429.5,108.1,426.6,108.1,423.6z"/>
		<path d="M395.8,435.6c-4.3,0.7-6-0.6-5.9-4.1c0.1-1.8,0.1-3.7-0.1-5.5c-0.3-2.7-0.8-2.9-4.9-2.5c0,3.6,0,7.3,0,11.6
			c-2.1,0.2-3.7,0.4-6,0.7c0-5.8,0-11.1,0-16.8c3.8,0,8.2-0.1,12.6,0c2.5,0.1,4.1,1.8,4.3,4.1C396.1,427.2,395.8,431.3,395.8,435.6z
			"/>
		<path d="M474.1,423.7c-0.3,2.6-0.6,5.2-0.8,7.9c-0.3,3.9-0.6,4.1-5.6,3.5c0-3.7,0-7.4,0-10.9c-4.9-1.5-4.9-1.5-5.7,11.3
			c-1.6,0.2-3.3,0.4-5.5,0.6c-0.3-5-0.8-9.4-0.6-13.8c0-1.1,2.2-2.8,3.6-3.2c2.3-0.6,4.9-0.2,7.4-0.3
			C470.5,418.6,472.6,420.6,474.1,423.7L474.1,423.7z"/>
		<path d="M533.8,434.9c-3.9,1.3-5.6,0.1-5.7-3.2c-0.1-3.2-0.3-6.4,0.1-9.5c0.2-1.2,1.7-3,2.8-3.2c2.7-0.5,5.6-0.4,8.4-0.3
			c3.7,0.1,5.5,1.8,5.7,5.5c0.1,2.8,0.3,5.7-0.1,8.5c-0.2,1.1-1.6,2.5-2.7,2.8c-2,0.5-3-0.9-3.1-2.9c-0.2-3.1-0.3-6.2-0.5-9.3
			c-4.5-0.6-4.4,2-4.5,4.5C534.1,430.2,533.9,432.5,533.8,434.9z"/>
		<path d="M134.7,419.5c0.3,4.4,0.7,8.4,1,12.6c4.4,0,4.3-2.6,4.3-5.1c0-2.3,0-4.6,0-6.7c5-1.4,5.9-1,6.1,3c0.2,3.8,0,7.5,0,12.2
			c-4.9,0-9.2,0.2-13.4-0.1c-1.2-0.1-3.2-1.9-3.3-3.1c-0.4-4.2-0.2-8.4-0.2-13.1C131.5,419.3,132.9,419.4,134.7,419.5z"/>
		<path d="M67.5,427.2c5.2-8.6,5.2-8.6,9.6-6.8c-1.9,4.5-3.6,9.1-5.8,13.5c-1.4,2.9-6.8,3-8,0.3c-2-4.4-3.4-9.1-5.1-13.6
			C63.1,417.8,63.1,417.8,67.5,427.2z"/>
		<path d="M487.1,431.8c0.3,0.7,0.6,1.3,1,2c-1.3,3.5-4,2.7-6.7,2.1c-2.8-0.6-4.2-2.3-4.4-5.2c-0.2-2.6,1-5.9-3-6.9l0,0
			c0-2.9,1.4-5,3.5-6.7c2-1.6,3.9-1.7,5.8-0.1c1.5,1.2,3,2.4,5,4c-1.5,1-2.7,1.9-4.3,3c-0.1,1.7-0.3,3.6-0.3,5.6
			C483.7,431.7,485.1,432.2,487.1,431.8z"/>
		<path d="M115.1,420.7c2.5-2.2,3.5-6.6,8-4.5c4.4,2.1,5.1,4,3.7,8c-0.7-0.2-1.4-0.4-2.1-0.7c-0.8,6.4-0.7,7,3.2,10.3
			c-1.5,2.9-4.5,2.5-6.4,1.8c-1.5-0.6-3-3.1-3.3-4.9C117.1,423.9,117.2,423.6,115.1,420.7z"/>
		<path d="M205.1,421.7c1.7-1.9,3.3-3.9,5.3-5.5c0.8-0.6,2.7-0.4,3.7,0.1c1.9,1.1,3.6,2.8,5.8,4.6c-1.5,1-2.8,1.9-4.4,2.9
			c0,2.3,0,4.7,0,7.5c0.8,0.7,1.9,1.6,3.1,2.5c-5.3,3.6-9,2.2-9.6-3.3c-0.3-2.1-0.2-4.3-0.3-6.9
			C207.6,423.1,206.3,422.4,205.1,421.7C205.1,421.7,205.1,421.7,205.1,421.7z"/>
		<path d="M163.1,419.8c-0.3,1-0.7,2-1,3c-5.8,1.9-5.8,1.9-6,8.3c0,1.4-0.3,2.9-0.5,4.9c-2.1-0.2-3.8-0.4-6-0.6c0-5.3,0-10.3,0-16
			C154.2,419.3,158.6,418.2,163.1,419.8z"/>
		<path d="M304.4,336.1c0.2-0.2,0.3-0.4,0.5-0.6c0.1,0.2,0.2,0.4,0.3,0.6c0,0.1-0.1,0.2-0.2,0.4
			C304.7,336.3,304.5,336.2,304.4,336.1z"/>
		<path d="M283.3,342.5c-0.1-0.3-0.2-0.6-0.4-0.8c0.1-0.1,0.4-0.2,0.4-0.2c0.1,0.3,0.3,0.5,0.4,0.8
			C283.6,342.4,283.5,342.4,283.3,342.5z"/>
		<path d="M100.6,392.4c-0.4,0-0.7,0-1.1-0.1c0-0.1,0-0.3,0-0.3c0.4,0,0.7,0,1.1,0.1C100.7,392.2,100.6,392.3,100.6,392.4z"/>
	</g>
</g>
</svg>
