<svg xmlns="http://www.w3.org/2000/svg" viewBox="0 0 500 500"><path d="M340.03 420c-4.52-.62-11.17-1.53-17.8-2.46-6.32-.89-12.64-1.86-18.97-2.68-4.06-.53-7.51.87-10.44 3.72-7.94 7.72-15.93 15.4-23.89 23.11-15.01 14.53-36.22 14.48-51.25-.13-7.56-7.35-15.23-14.6-22.7-22.03-3.86-3.84-8.1-5.3-13.58-4.39-10.5 1.75-21.06 3.07-31.6 4.54-20.59 2.88-37.78-9.81-41.3-30.42-1.84-10.81-3.83-21.59-5.67-32.4-.76-4.46-3.16-7.53-7.1-9.61-9.99-5.25-19.97-10.51-29.91-15.87-9.85-5.31-16.09-13.45-18.36-24.45-1.67-8.1-.51-15.88 3.14-23.3 4.79-9.74 9.44-19.56 14.36-29.24 2.38-4.68 2.41-9.02.04-13.7-4.85-9.59-9.33-19.38-14.23-28.95-8.86-17.29-2.8-39.09 15.8-48.57 9.3-4.73 18.35-9.94 27.7-14.58 5.41-2.68 8.13-6.68 9.04-12.55a863.42 863.42 0 015.73-32.71c3.54-18.16 20.41-30.41 38.73-28.15 11.51 1.42 23.01 3.03 34.47 4.79 5.01.77 8.9-.76 12.41-4.21 7.59-7.47 15.31-14.81 22.92-22.26 5.06-4.96 10.86-8.63 17.84-10.06 12.44-2.56 23.47.36 32.74 9.15 8.04 7.62 15.89 15.44 23.93 23.06 1.66 1.58 3.65 3.02 5.76 3.84 1.78.69 3.98.73 5.93.48 11.72-1.51 23.39-3.32 35.12-4.78 17.99-2.23 34.59 9.39 38.58 27.13 1.79 7.99 2.96 16.12 4.4 24.18.64 3.56 1.39 7.11 1.86 10.69.67 5.09 3.32 8.53 7.85 10.88 9.83 5.09 19.6 10.3 29.36 15.54 9.42 5.06 15.53 12.79 18.1 23.2 2.02 8.16 1.14 16.09-2.49 23.65-4.84 10.08-9.68 20.16-14.74 30.12-2.44 4.8-2.34 9.23.08 13.99 4.87 9.58 9.52 19.28 14.21 28.96 8.89 18.35 2.35 38.49-15.62 48.08-9.58 5.12-19.14 10.28-28.79 15.25-4.65 2.4-7.18 5.94-8.01 11.12-1.74 10.93-3.76 21.82-5.7 32.71-3.1 17.42-18.49 30.02-37.95 29.31zM90.41 247.33c.01 6-1.16 10.81-4.14 16.89-4.77 9.75-9.53 19.51-14.32 29.26-1.14 2.33-1.94 4.72-1.66 7.36.51 4.76 3.09 7.99 7.26 10.18 9.71 5.1 19.36 10.3 29.07 15.4 11.18 5.87 17.55 15.07 19.59 27.49 1.76 10.71 3.71 21.39 5.65 32.07 1.33 7.3 6.67 11.34 13.96 10.4 10.34-1.34 20.69-2.66 30.98-4.38 13.49-2.26 25 1.03 34.73 10.82 7.58 7.63 15.41 15.02 23.19 22.44 5.21 4.96 11.89 4.95 17.2.13.63-.57 1.24-1.17 1.85-1.76 7.81-7.55 15.53-15.2 23.46-22.62 8.26-7.73 18.11-10.89 29.37-9.35 11.39 1.55 22.76 3.24 34.16 4.7 7.4.95 12.65-2.93 14.15-10.2.6-2.92 1.04-5.87 1.55-8.8 1.52-8.7 2.85-17.44 4.62-26.09 2.21-10.84 8.31-19.01 18.07-24.29 9.55-5.16 19.18-10.19 28.76-15.3 1.31-.7 2.66-1.39 3.84-2.28 4.71-3.56 6.08-9.52 3.37-15.17-4.83-10.08-9.75-20.12-14.7-30.14-5.53-11.19-5.42-22.3.12-33.46 4.83-9.72 9.54-19.51 14.32-29.26 1.4-2.85 2.13-5.76 1.32-8.95-.99-3.87-3.37-6.53-6.85-8.37-9.98-5.26-19.97-10.52-29.91-15.87-9.97-5.37-16.19-13.64-18.42-24.76-1.24-6.15-2.18-12.37-3.28-18.55-1.02-5.76-1.88-11.56-3.16-17.27-1.37-6.08-7.14-9.98-13.16-9.15-9.38 1.28-18.74 2.73-28.13 4-4.21.57-8.47 1.35-12.69 1.25-9.55-.24-17.7-4-24.54-10.75-7.88-7.78-15.92-15.41-23.87-23.12-2.85-2.77-6.18-4.05-10.15-3.67-3.13.3-5.59 1.83-7.8 3.97-8.1 7.87-16.17 15.76-24.35 23.54-8.02 7.62-17.59 11.11-28.62 9.75-11.72-1.44-23.41-3.18-35.11-4.83-7.12-1.01-12.91 3-14.24 10.07-1.12 5.96-2.12 11.95-3.18 17.92-1 5.66-1.92 11.33-3.05 16.97-2.2 11.02-8.35 19.2-18.21 24.53-9.44 5.12-18.96 10.11-28.46 15.16-.75.4-1.51.79-2.25 1.21-6.02 3.44-8.18 9.91-5.19 16.17 5.01 10.47 10.16 20.86 15.24 31.3 2.37 4.86 3.61 9.99 3.61 15.41z"/><path d="M153.65 324.77c-.04-2.31 1.05-5.01 3.17-7.29.51-.55 1.05-1.06 1.57-1.59 51.13-51.14 102.26-102.27 153.37-153.43 2.74-2.75 5.68-4.79 9.73-4.71 4.68.09 8.19 2.21 10.34 6.32 2.16 4.12 1.79 8.24-.8 12.1-.7 1.05-1.64 1.96-2.54 2.86-51.2 51.22-102.41 102.42-153.59 153.66-3.66 3.67-7.72 5.63-12.92 4.1-5.08-1.5-8.33-5.91-8.33-12.02zm180.3-14.07c-.07 23.88-19.55 43.29-43.39 43.19-22.91-.1-43.11-18.17-43.17-43.43-.06-23.94 19.66-43.31 43.41-43.23 23.84.1 43.22 19.62 43.15 43.47zm-23.47-.2c-.04-10.76-8.96-19.7-19.73-19.76-10.82-.06-20 9.13-19.92 19.93.08 10.75 9.06 19.72 19.78 19.74 10.91.02 19.91-9 19.87-19.91zm-114.51-82.81c-22.72.01-43.27-18.01-43.16-43.37.11-26.75 22.28-43.49 43.67-43.19 23.64.33 42.89 19.59 42.85 43.39-.03 23.88-19.48 43.25-43.36 43.17zm.14-63.03c-10.88 0-19.81 8.82-19.89 19.64-.08 10.84 9.18 20.08 19.98 19.96 10.84-.13 19.69-9.07 19.67-19.89-.02-10.85-8.9-19.71-19.76-19.71z"/></svg>