<svg xmlns="http://www.w3.org/2000/svg" viewBox="0 0 500 500"><path d="M454.2 310.04c0 24.05.1 48.11-.03 72.16-.09 16.53-9.92 29.46-25.21 33.22-3.89.96-8.05 1.27-12.08 1.31-14.53.15-29.06.16-43.59-.01-3.39-.04-5.52 1-7.51 3.55-6.72 8.61-13.65 17.07-20.57 25.53-5.67 6.94-11.56 6.96-17.22.04-6.6-8.06-13.33-16.05-19.58-24.35-2.8-3.72-5.95-4.82-10.62-4.81-16.47.07-33.01.56-49.39-.68-20.38-1.55-34.08-16.95-34.09-36.34-.04-46.44.37-92.88-.27-139.31-.31-22.43 19.41-37.62 40.11-37.58 34.73.06 69.46.06 104.19.08 19.67.01 39.34-.03 59.01.01 21.99.05 36.65 13.66 36.81 34.51.18 24.22.04 48.45.04 72.67zM336.55 427.65c6.66-8.27 12.79-15.61 18.58-23.18 2.99-3.9 6.56-5.52 11.68-5.46 16.47.2 32.95.12 49.43.05 12.83-.05 19.24-6.1 19.25-18.28.05-48.1.05-96.2 0-144.29-.01-12.18-6.37-18.02-19.3-18.02-42.87-.01-85.75-.01-128.62 0-11.34 0-22.68-.12-34.01.06-11.26.18-20.49 8.09-20.51 17.74-.09 48.26-.18 96.53.2 144.79.03 4 2.79 8.57 5.63 11.83 4.39 5.04 11.07 6.21 17.85 6.2 16.12-.01 32.25.22 48.36-.11 6.18-.13 10.3 1.86 13.79 6.57 5.45 7.34 11.43 14.34 17.67 22.1z"/><path d="M182.97 55.22c-67.25.08-120.24 48-122.97 108.36-2.46 54.46 40.82 105.12 97.75 114.24 6.79 1.09 13.71 1.56 20.59 1.99 6.85.43 10.36 3.01 10.39 8.24.03 5.44-3.83 8.56-10.63 8.58-62.48.15-120.28-44.19-132.92-101.96C28.9 120.28 82.32 49.41 162.11 39.55c75.07-9.27 143.96 40.12 154.68 110.97.77 5.11 1.06 10.31 1.2 15.48.16 5.97-3.43 9.73-8.84 9.77-5.52.04-8.7-3.36-8.99-9.58-1.98-42.37-22.32-74.48-60.94-96.12-18.22-10.2-38.24-14.66-56.25-14.85z"/><path d="M152.97 142.36c-5.8-.52-11.2-1.01-16.52-1.49-1.77-18.2 15.13-38.28 35.5-41.14 8-1.12 16.78-.85 24.59 1.03 28.78 6.94 39.74 39.23 21.07 61.09-3.85 4.5-8.57 8.45-13.33 12.14-9.44 7.31-19.72 13.96-16.2 28.14h-17.87c-1.33-10.71.21-20.64 8.23-28.54 6.1-6.01 13-11.29 19.64-16.79 7.1-5.88 10.97-12.92 9.84-22.07-.86-6.98-4.2-12.42-10.88-15.59-17.51-8.3-38.67-2.22-42.81 18.23-.3 1.46-.73 2.9-1.26 4.99zm14.94 76.74h18.05v17.2h-18.05v-17.2zm227.44 38.1c4.69 3.5 9.08 6.77 13.76 10.26-1.3 1.67-2.26 3.03-3.34 4.3-22.59 26.34-45.19 52.68-67.81 79.01-6.76 7.87-10.99 8.14-18.58.83-13.98-13.47-27.81-27.08-41.81-40.74 3.24-2.85 7.31-6.42 11.99-10.53 12.14 11.29 24.91 23.16 38.26 35.56 22.62-26.35 44.94-52.35 67.53-78.69z"/></svg>