<svg xmlns="http://www.w3.org/2000/svg" viewBox="0 0 500 500"><path d="M42.27 336.52V153.06c.2-.49.5-.96.58-1.46 3.29-21.06 22.7-36.11 44.79-35.73 37.93.65 75.87.15 113.81.24 2.89.01 4.95-.75 7.03-2.85 20.2-20.37 40.53-40.61 60.8-60.91 6.59-6.6 14.14-11.39 23.54-12.85 14.36-2.23 26.36 2.39 36.47 12.5 17.26 17.24 34.5 34.51 51.76 51.75 4.08 4.07 7.57 9.63 12.5 11.68 4.93 2.05 11.33.59 17.08.61 25.18.12 43.58 18.49 43.6 43.7.04 56.71.04 113.41-.04 170.12-.01 3.85-.37 7.8-1.3 11.53-4.73 19.11-21.46 32.06-41.5 32.11-38.88.08-77.75.05-116.63-.03-2.78-.01-4.7.81-6.65 2.78-18.51 18.65-37.3 37.02-55.62 55.86-8.78 9.02-18.06 16.66-30.91 18.68h-8.85c-13.02-1.95-22.4-9.68-31.26-18.8-18.21-18.72-36.89-36.98-55.27-55.54-2.17-2.19-4.32-3.1-7.36-2.98-5.35.2-10.72.23-16.07-.03-12.1-.58-22.09-5.61-30.14-14.68-5.69-6.42-8.53-14.08-10.36-22.24zm394.67-151.9h-5.63c-107.81 0-215.62 0-323.42-.01-1.87 0-3.77.04-5.62-.19-4.12-.51-7.08-3.69-7.42-7.76-.33-3.89 2.29-7.63 6.35-8.61 1.92-.47 3.98-.49 5.97-.49 108.21-.02 216.42-.02 324.63-.02h5.34v-5.35c0-19.07-9.93-29.04-28.96-29.04-106.6 0-213.2-.01-319.8.04-3.45 0-7.03.18-10.34 1.05-11.74 3.08-18.61 12.64-18.63 25.89-.06 46.93-.03 93.86-.01 140.79 0 1.17.15 2.34.24 3.62h377.31c-.01-40-.01-79.65-.01-119.92zM59.38 322.22c0 2.76-.03 5.03 0 7.29.23 16.41 10.59 26.88 27.05 26.89 107.92.05 215.84.02 323.76.03 18.54 0 29.86-14.34 26.36-34.21H59.38zm107.77 89.93c2.1-2.28 4.38-4.91 6.82-7.37 4.75-4.78 10.02-5.29 13.72-1.46 3.73 3.85 3.27 8.72-1.52 13.4-2.56 2.51-5.44 4.7-8.08 6.95 10.26 12.27 25.1 13.08 35.78 2.55 17-16.76 33.78-33.73 50.64-50.63.48-.48.79-1.14 1.25-1.83h-137c12.63 12.62 25.28 25.27 38.39 38.39zm62.69-296.1c11.96 0 22.76-.08 33.56.06 2.62.03 4.45-.76 6.29-2.61 15.08-15.22 30.26-30.34 45.4-45.49.93-.93 1.81-1.89 2.69-2.81-8.96-10.91-23.32-12.28-33.59-3.23-4.11 3.62-7.87 7.65-11.75 11.53-13.93 13.89-27.84 27.8-42.6 42.55zm62.84-.36h74.46c-12.32-12.37-24.95-25.04-37.13-37.26-12.26 12.24-24.84 24.8-37.33 37.26z"/><path d="M99.11 231.24h-7.05c-1.02 0-1.75-.23-2.18-.68-.44-.46-.65-1.18-.65-2.18v-17.35c0-1.02.22-1.75.67-2.2.45-.45 1.17-.67 2.17-.67h7.48c1.1 0 2.06.07 2.87.2.81.14 1.53.4 2.17.79a5.718 5.718 0 012.41 2.89c.22.6.33 1.24.33 1.91 0 2.31-1.15 4-3.46 5.07 3.03.97 4.55 2.84 4.55 5.64 0 1.29-.33 2.45-.99 3.49a5.92 5.92 0 01-2.68 2.29c-.7.29-1.51.5-2.42.62-.94.12-2 .18-3.22.18zm-5.21-19.57v5.97h4.28c1.17 0 2.07-.11 2.7-.33.63-.22 1.12-.64 1.46-1.26.26-.44.39-.93.39-1.48 0-1.17-.41-1.94-1.24-2.32-.83-.38-2.09-.57-3.79-.57h-3.8zm4.87 9.32H93.9v6.74h5.02c3.16 0 4.74-1.14 4.74-3.42 0-1.17-.41-2.01-1.23-2.54-.81-.51-2.04-.78-3.66-.78zm13.87 7.8V210.6c0-.94.21-1.65.65-2.13.43-.47.99-.71 1.67-.71.7 0 1.27.23 1.71.7.44.47.65 1.18.65 2.13v18.19c0 .96-.22 1.67-.65 2.14-.44.47-1.01.71-1.71.71-.67 0-1.23-.24-1.66-.72-.44-.47-.66-1.18-.66-2.12zm14.48-18.19v16.8h9.48c.76 0 1.34.18 1.74.55.4.37.61.83.61 1.39 0 .57-.2 1.03-.6 1.38-.4.35-.98.53-1.75.53h-11.29c-1.02 0-1.75-.23-2.2-.68-.45-.45-.67-1.18-.67-2.19V210.6c0-.94.21-1.65.64-2.13.43-.47.98-.71 1.68-.71s1.27.23 1.71.7c.44.47.65 1.19.65 2.14zm19.48 0v16.8h9.48c.76 0 1.34.18 1.74.55.4.37.61.83.61 1.39 0 .57-.2 1.03-.6 1.38-.4.35-.98.53-1.75.53h-11.29c-1.02 0-1.75-.23-2.2-.68-.45-.45-.67-1.18-.67-2.19V210.6c0-.94.21-1.65.64-2.13.43-.47.98-.71 1.68-.71s1.27.23 1.71.7c.43.47.65 1.19.65 2.14zm30.11 1.17h-10.53v5.67h9.7c.71 0 1.25.16 1.6.48.35.32.53.74.53 1.27s-.17.95-.52 1.28-.88.5-1.61.5h-9.7v6.57h10.9c.73 0 1.29.17 1.66.51.37.34.56.8.56 1.36 0 .55-.19.99-.56 1.33-.37.34-.93.51-1.66.51h-12.71c-1.02 0-1.75-.23-2.2-.68-.45-.45-.67-1.18-.67-2.19v-17.35c0-.67.1-1.22.3-1.65.2-.43.51-.73.94-.93.43-.19.97-.29 1.63-.29h12.35c.75 0 1.3.17 1.66.5s.54.76.54 1.3c0 .55-.18.98-.54 1.31s-.93.5-1.67.5zm21.29.25h-5.1v16.77c0 .97-.22 1.68-.65 2.15-.43.47-.99.7-1.67.7-.69 0-1.26-.24-1.69-.71-.44-.47-.65-1.19-.65-2.14v-16.77h-5.1c-.8 0-1.39-.18-1.78-.53-.39-.35-.58-.82-.58-1.39 0-.6.2-1.07.61-1.42.4-.35.99-.52 1.76-.52H198c.81 0 1.41.18 1.8.54.39.36.59.82.59 1.4s-.2 1.04-.6 1.39c-.4.35-.99.53-1.79.53zm-94.95 38.44h-9.21v5.9h7.7c.71 0 1.25.16 1.6.48.35.32.53.75.53 1.28s-.18.96-.54 1.28c-.36.31-.89.47-1.59.47h-7.7v7.61c0 .97-.22 1.68-.65 2.15-.44.47-.99.7-1.68.7s-1.26-.24-1.69-.71c-.44-.47-.65-1.19-.65-2.14v-17.76c0-.67.1-1.22.3-1.65.2-.43.51-.73.94-.93.43-.19.97-.29 1.63-.29h11.02c.75 0 1.3.17 1.66.5.36.33.54.76.54 1.3 0 .55-.18.98-.54 1.31-.37.34-.93.5-1.67.5zm20.89 0h-10.53v5.67h9.7c.71 0 1.25.16 1.6.48.35.32.53.74.53 1.27s-.17.95-.52 1.28c-.35.33-.88.5-1.61.5h-9.7v6.57h10.9c.73 0 1.29.17 1.66.51.37.34.56.8.56 1.36 0 .55-.19.99-.56 1.33-.37.34-.93.51-1.66.51H111.6c-1.02 0-1.75-.23-2.2-.68-.45-.45-.67-1.18-.67-2.19v-17.35c0-.67.1-1.22.3-1.65.2-.43.51-.73.94-.93.43-.19.97-.29 1.63-.29h12.35c.75 0 1.3.17 1.66.5.36.33.54.76.54 1.3 0 .55-.18.98-.54 1.31-.37.34-.92.5-1.67.5zm23.84 12.55c0 1.4-.36 2.65-1.08 3.76-.72 1.11-1.77 1.98-3.16 2.61s-3.03.94-4.93.94c-2.28 0-4.16-.43-5.64-1.29a7.59 7.59 0 01-2.56-2.48c-.66-1.03-.98-2.04-.98-3.02 0-.57.2-1.05.59-1.46s.89-.61 1.5-.61c.49 0 .91.16 1.25.47.34.31.63.78.87 1.4.29.73.61 1.35.95 1.84.34.49.82.9 1.44 1.22.62.32 1.43.48 2.44.48 1.39 0 2.51-.32 3.38-.97s1.3-1.45 1.3-2.42c0-.77-.23-1.39-.7-1.87-.47-.48-1.07-.84-1.81-1.09-.74-.25-1.73-.52-2.97-.8-1.66-.39-3.05-.84-4.16-1.36s-2.01-1.23-2.66-2.13c-.66-.9-.98-2.01-.98-3.35 0-1.27.35-2.4 1.04-3.39.69-.99 1.7-1.75 3.01-2.28 1.31-.53 2.86-.8 4.63-.8 1.42 0 2.64.18 3.68.53 1.03.35 1.89.82 2.57 1.4.68.58 1.18 1.19 1.5 1.83.31.64.47 1.27.47 1.87 0 .56-.2 1.06-.59 1.5-.39.45-.88.67-1.47.67-.54 0-.94-.13-1.22-.4s-.58-.71-.91-1.31c-.42-.87-.92-1.55-1.51-2.04s-1.53-.73-2.83-.73c-1.21 0-2.18.27-2.92.8-.74.53-1.11 1.17-1.11 1.91 0 .46.13.86.38 1.2s.6.62 1.04.87c.44.24.89.43 1.34.57.45.14 1.2.34 2.24.6 1.3.3 2.48.64 3.54 1.01s1.95.81 2.69 1.34 1.32 1.19 1.73 1.99c.41.84.61 1.83.61 2.99zm18.96-12.29h-5.1v16.77c0 .97-.22 1.68-.65 2.15-.43.47-.99.7-1.67.7-.69 0-1.26-.24-1.69-.71-.44-.47-.65-1.19-.65-2.14v-16.77h-5.1c-.8 0-1.39-.18-1.78-.53-.39-.35-.58-.82-.58-1.39 0-.6.2-1.07.61-1.42.4-.35.99-.52 1.76-.52h14.86c.81 0 1.41.18 1.8.54.39.36.59.82.59 1.4s-.2 1.04-.6 1.39c-.4.35-1 .53-1.8.53zm5.36 16.76V249.3c0-.94.21-1.65.65-2.13.43-.47.99-.71 1.67-.71.7 0 1.27.23 1.71.7.44.47.65 1.18.65 2.13v18.19c0 .95-.22 1.67-.65 2.14-.44.47-1.01.71-1.71.71-.67 0-1.23-.24-1.66-.72-.45-.47-.66-1.18-.66-2.13zm13.32-17.95l5.23 15.48 5.24-15.59c.27-.82.48-1.39.61-1.71.14-.32.36-.61.68-.87.31-.26.75-.39 1.29-.39.4 0 .77.1 1.11.3.34.2.61.46.8.8.19.33.29.66.29 1 0 .23-.03.48-.09.75s-.14.53-.24.79c-.09.26-.19.52-.28.8l-5.59 15.08c-.2.58-.4 1.13-.6 1.65-.2.52-.43.98-.69 1.37-.26.39-.61.72-1.05.97-.44.25-.97.38-1.6.38s-1.16-.12-1.6-.37c-.44-.25-.79-.57-1.06-.98s-.5-.86-.7-1.38c-.2-.51-.4-1.06-.6-1.64l-5.5-14.96c-.09-.27-.19-.54-.29-.8-.1-.26-.18-.55-.25-.85-.07-.3-.1-.56-.1-.77 0-.54.21-1.02.65-1.46.43-.44.97-.66 1.62-.66.8 0 1.36.24 1.69.73.34.48.68 1.26 1.03 2.33zm31.9 17.8l-1.1-2.9h-9.38l-1.1 2.96c-.43 1.15-.8 1.93-1.1 2.34-.3.4-.8.61-1.5.61-.59 0-1.11-.21-1.56-.65-.45-.43-.68-.92-.68-1.46 0-.31.05-.64.16-.98.1-.34.28-.8.52-1.4l5.9-14.99c.17-.43.37-.95.61-1.55s.49-1.1.76-1.5.62-.72 1.05-.97c.44-.25.97-.37 1.61-.37.65 0 1.19.12 1.63.37.44.25.79.56 1.05.95.27.39.49.81.68 1.25.18.45.42 1.04.7 1.79l6.03 14.9c.47 1.13.71 1.96.71 2.47 0 .54-.22 1.03-.67 1.47-.45.45-.98.67-1.61.67-.37 0-.68-.07-.94-.2-.26-.13-.48-.31-.66-.54-.18-.23-.37-.57-.57-1.04-.22-.46-.39-.88-.54-1.23zm-9.26-6.41h6.9l-3.48-9.53-3.42 9.53zm22.26-11.62v16.8h9.48c.76 0 1.34.18 1.74.55.4.37.61.83.61 1.39 0 .57-.2 1.03-.6 1.38-.4.35-.98.53-1.75.53h-11.29c-1.02 0-1.75-.23-2.2-.68-.45-.45-.67-1.18-.67-2.19V249.3c0-.94.21-1.65.64-2.13.43-.47.98-.71 1.68-.71s1.27.23 1.71.7c.44.47.65 1.18.65 2.14zm31.92 11.65h-4.28v6.53c0 .93-.22 1.64-.66 2.13-.44.48-1 .72-1.67.72-.7 0-1.27-.24-1.7-.72-.43-.48-.65-1.18-.65-2.1v-17.79c0-1.03.24-1.76.71-2.2.47-.44 1.22-.66 2.25-.66h6c1.77 0 3.14.14 4.09.41.94.26 1.76.7 2.45 1.31.69.61 1.21 1.35 1.57 2.24.36.88.54 1.87.54 2.98 0 2.35-.72 4.13-2.17 5.35-1.45 1.19-3.61 1.8-6.48 1.8zm-1.13-10.58h-3.15v7.05h3.15c1.1 0 2.02-.12 2.76-.35.74-.23 1.3-.61 1.69-1.13.39-.53.58-1.21.58-2.06 0-1.02-.3-1.85-.9-2.49-.66-.68-2.04-1.02-4.13-1.02zm18.26-1.07v16.8h9.48c.76 0 1.34.18 1.74.55.4.37.61.83.61 1.39 0 .57-.2 1.03-.6 1.38-.4.35-.98.53-1.75.53h-11.29c-1.02 0-1.75-.23-2.2-.68-.45-.45-.67-1.18-.67-2.19V249.3c0-.94.21-1.65.64-2.13s.98-.71 1.68-.71 1.27.23 1.71.7c.44.47.65 1.18.65 2.14zm30.11 1.16h-10.53v5.67h9.7c.71 0 1.25.16 1.6.48.35.32.53.74.53 1.27s-.17.95-.52 1.28c-.35.33-.88.5-1.61.5h-9.7v6.57h10.9c.73 0 1.29.17 1.66.51.37.34.56.8.56 1.36 0 .55-.19.99-.56 1.33-.37.34-.93.51-1.66.51h-12.71c-1.02 0-1.75-.23-2.2-.68-.45-.45-.67-1.18-.67-2.19v-17.35c0-.67.1-1.22.3-1.65.2-.43.51-.73.94-.93.43-.19.97-.29 1.63-.29h12.35c.75 0 1.3.17 1.66.5.36.33.54.76.54 1.3 0 .55-.18.98-.54 1.31-.37.34-.92.5-1.67.5zm6.49 17.02V249.3c0-.94.21-1.65.65-2.13.43-.47.99-.71 1.67-.71.7 0 1.27.23 1.71.7.44.47.65 1.18.65 2.13v18.19c0 .95-.22 1.67-.65 2.14-.44.47-1.01.71-1.71.71-.67 0-1.23-.24-1.66-.72-.44-.47-.66-1.18-.66-2.13zm16-18.21l8.99 13.6v-13.73c0-.89.19-1.56.57-2.01s.9-.67 1.55-.67c.67 0 1.2.22 1.59.67.39.45.58 1.12.58 2.01v18.16c0 2.03-.84 3.04-2.52 3.04-.42 0-.8-.06-1.13-.18s-.65-.31-.94-.57c-.29-.26-.57-.57-.82-.92-.25-.35-.5-.71-.76-1.08l-8.77-13.45v13.53c0 .88-.2 1.55-.61 2-.41.45-.93.68-1.57.68-.66 0-1.19-.23-1.59-.68-.4-.46-.6-1.12-.6-1.99v-17.81c0-.76.08-1.35.25-1.78.2-.47.53-.86.99-1.16.46-.3.96-.45 1.5-.45.42 0 .78.07 1.08.2.3.14.56.32.79.55.23.23.46.53.69.9s.47.74.73 1.14zm41.24 18.06l-1.1-2.9h-9.38l-1.1 2.96c-.43 1.15-.8 1.93-1.1 2.34-.3.4-.8.61-1.5.61-.59 0-1.11-.21-1.56-.65-.45-.43-.68-.92-.68-1.46 0-.31.05-.64.16-.98.1-.34.28-.8.52-1.4l5.9-14.99c.17-.43.37-.95.61-1.55.24-.6.49-1.1.76-1.5.27-.4.62-.72 1.05-.97s.97-.37 1.61-.37c.65 0 1.19.12 1.63.37.44.25.79.56 1.05.95.27.39.49.81.68 1.25.18.45.42 1.04.7 1.79l6.03 14.9c.47 1.13.71 1.96.71 2.47 0 .54-.22 1.03-.67 1.47-.45.45-.98.67-1.61.67-.37 0-.68-.07-.94-.2-.26-.13-.48-.31-.66-.54s-.37-.57-.57-1.04c-.22-.46-.4-.88-.54-1.23zm-9.26-6.41h6.9l-3.48-9.53-3.42 9.53zm17.87 6.56V249.3c0-.94.21-1.65.65-2.13.43-.47.99-.71 1.67-.71.7 0 1.27.23 1.71.7.44.47.65 1.18.65 2.13v18.19c0 .95-.22 1.67-.65 2.14-.44.47-1.01.71-1.71.71-.67 0-1.23-.24-1.66-.72-.44-.47-.66-1.18-.66-2.13zm16.19-7.41h-1.64v7.42c0 .98-.21 1.7-.65 2.16s-.99.69-1.68.69c-.75 0-1.32-.24-1.73-.72-.41-.48-.61-1.19-.61-2.13v-17.76c0-1.01.23-1.74.68-2.19.45-.45 1.18-.68 2.19-.68h7.61c1.05 0 1.95.04 2.69.13.75.09 1.42.27 2.02.54.72.3 1.36.74 1.92 1.31.56.57.98 1.23 1.27 1.98s.43 1.55.43 2.39c0 1.72-.49 3.1-1.46 4.13-.97 1.03-2.44 1.76-4.42 2.19.83.44 1.62 1.09 2.38 1.95s1.43 1.78 2.02 2.75c.59.97 1.06 1.85 1.39 2.63s.5 1.32.5 1.61c0 .3-.1.61-.29.91-.19.3-.46.54-.8.71s-.72.26-1.17.26c-.53 0-.97-.12-1.32-.37a3.58 3.58 0 01-.92-.94 32.3 32.3 0 01-1.05-1.67l-1.87-3.12c-.67-1.14-1.27-2.02-1.8-2.61-.53-.6-1.07-1.01-1.61-1.23-.57-.23-1.25-.34-2.08-.34zm2.67-9.7h-4.31v6.35h4.19c1.12 0 2.07-.1 2.83-.29s1.35-.53 1.76-.99c.4-.47.61-1.11.61-1.93 0-.64-.16-1.2-.49-1.69a2.97 2.97 0 00-1.35-1.09c-.55-.25-1.63-.36-3.24-.36z"/></svg>