<?xml version="1.0" encoding="utf-8"?>
<!-- Generator: Adobe Illustrator 27.1.1, SVG Export Plug-In . SVG Version: 6.00 Build 0)  -->
<svg version="1.1" id="Calque_1" xmlns="http://www.w3.org/2000/svg" xmlns:xlink="http://www.w3.org/1999/xlink" x="0px" y="0px"
	 viewBox="0 0 81 44.8" style="enable-background:new 0 0 81 44.8;" xml:space="preserve">
<style type="text/css">
	.st0{fill:#261F18;}
</style>
<path class="st0" d="M79.6,37.4L43.4,1.3c-0.2-0.2-0.6-0.6-1.2-0.9l-0.6-0.3h-0.2C41.2,0,40.9,0,40.5,0h-0.3c-0.7,0-1.3,0.2-1.9,0.6
	C38,0.7,37.6,1,37.2,1.5l-36,36.2C0.4,38.4,0,39.5,0,40.6s0.4,2.2,1.2,2.9c1.7,1.7,4.2,1.7,5.9,0l29.2-29.2l0,0l4.3-4.3l10.6,10.8
	l22.7,22.7c0.7,0.7,1.8,1.2,2.9,1.2c2.4,0,4.2-1.8,4.2-4.2C81,39.2,80.5,38.2,79.6,37.4z"/>
</svg>
