<?xml version="1.0" encoding="utf-8"?>
<!-- Generator: Adobe Illustrator 27.1.0, SVG Export Plug-In . SVG Version: 6.00 Build 0)  -->
<svg version="1.1" id="Calque_1" xmlns="http://www.w3.org/2000/svg" xmlns:xlink="http://www.w3.org/1999/xlink" x="0px" y="0px"
	 viewBox="0 0 82 82" style="enable-background:new 0 0 82 82;" xml:space="preserve">
<style type="text/css">
	.st0{fill:#B2CE7C;}
	.st1{fill:#F9F4F0;}
</style>
<circle class="st0" cx="41.5" cy="41.5" r="41"/>
<path class="st1" d="M69.3,40.3H16.6l25.7-25.7c0.2-0.2,0.3-0.5,0.3-0.8c0-0.7-0.5-1.2-1.2-1.2c-0.3,0-0.6,0.1-0.8,0.4L12.9,40.7
	c-0.1,0.1-0.2,0.2-0.3,0.4c0,0.1-0.1,0.2-0.1,0.3l0,0v0.2c0,0.1,0,0.2,0.1,0.3s0.1,0.3,0.3,0.4l27.8,27.8c0.2,0.2,0.5,0.3,0.8,0.3
	s0.6-0.1,0.8-0.3c0.5-0.5,0.5-1.2,0-1.7L16.6,42.7h52.7c0.7,0,1.2-0.5,1.2-1.2S69.9,40.3,69.3,40.3z M13,41.5L13,41.5L13,41.5
	L13,41.5z"/>
</svg>
