<?xml version="1.0" encoding="utf-8"?>
<!-- Generator: Adobe Illustrator 27.1.0, SVG Export Plug-In . SVG Version: 6.00 Build 0)  -->
<svg version="1.1" id="Calque_1" xmlns="http://www.w3.org/2000/svg" xmlns:xlink="http://www.w3.org/1999/xlink" x="0px" y="0px"
	 viewBox="0 0 82 82" style="enable-background:new 0 0 82 82;" xml:space="preserve">
<style type="text/css">
	.st0{fill:#B2CE7C;}
	.st1{fill:#F9F4F0;}
</style>
<circle class="st0" cx="41" cy="41" r="41"/>
<path class="st1" d="M13.2,42.2h52.7L40.2,67.9c-0.2,0.2-0.3,0.5-0.3,0.8c0,0.7,0.5,1.2,1.2,1.2c0.3,0,0.6-0.1,0.8-0.4l27.7-27.7
	c0.1-0.1,0.2-0.2,0.3-0.4c0-0.1,0.1-0.2,0.1-0.3l0,0v-0.2c0-0.1,0-0.2-0.1-0.3s-0.1-0.3-0.3-0.4L41.8,12.4c-0.2-0.2-0.5-0.3-0.8-0.3
	s-0.6,0.1-0.8,0.3c-0.5,0.5-0.5,1.2,0,1.7l25.7,25.7H13.2c-0.7,0-1.2,0.5-1.2,1.2S12.6,42.2,13.2,42.2z M69.5,41L69.5,41L69.5,41
	L69.5,41z"/>
</svg>
